<?xml version="1.0" encoding="UTF-8" standalone="no"?>
<svg color-interpolation="auto" color-rendering="auto" fill="#000000" fill-opacity="1" font-family="Dialog" font-size="12px" font-style="normal" font-weight="normal" height="104.65601" image-rendering="auto" shape-rendering="auto" stroke="#000000" stroke-dasharray="none" stroke-dashoffset="0" stroke-linecap="square" stroke-linejoin="miter" stroke-miterlimit="10" stroke-opacity="1" stroke-width="1" text-rendering="auto" width="286.20499" version="1.1" id="svg8" xmlns="http://www.w3.org/2000/svg" xmlns:svg="http://www.w3.org/2000/svg">
  <!--Generated by Marvin with Batik SVG Generator-->
  <defs id="genericDefs"/>
  <g id="g8" transform="translate(-37.639999,-280.383)">
    <defs id="370956565634-defs1">
      <clipPath clipPathUnits="userSpaceOnUse" id="370956565231-clipPath1">
        <path d="M 0,0 H 800 V 600 H 0 Z" id="path1"/>
      </clipPath>
      <clipPath clipPathUnits="userSpaceOnUse" id="370956565519-clipPath1">
        <path d="m 154.0561,243.0712 c -27.6954,0 -50.1469,22.4515 -50.1469,50.1469 0,27.6954 22.4515,50.147 50.1469,50.147 27.6954,0 50.147,-22.4516 50.147,-50.147 0,-27.6954 -22.4516,-50.1469 -50.147,-50.1469 z" id="path2"/>
      </clipPath>
      <clipPath clipPathUnits="userSpaceOnUse" id="370956565736-clipPath1">
        <path d="m -248.5962,-331.6893 h 799.9999 v 600 h -799.9999 z" id="path3"/>
      </clipPath>
    </defs>
    <g fill="#ff0000" stroke="#ff0000" text-rendering="geometricPrecision" id="g5">
      <path clip-path="url(#370956565231-clipPath1)" d="m 155.4733,290.7636 v 0 l 86.857,50.147 c 1.3556,0.7826 1.8201,2.516 1.0374,3.8716 -0.7826,1.3556 -2.516,1.8201 -3.8716,1.0374 v 0 l -86.8571,-50.147 c -1.3556,-0.7826 -1.82,-2.516 -1.0374,-3.8716 0.7827,-1.3556 2.5161,-1.82 3.8717,-1.0374 z" stroke="none" id="path4"/>
      <path clip-path="url(#370956565519-clipPath1)" d="m 155.4733,290.7636 v 0 l 86.857,50.147 c 1.3556,0.7826 1.8201,2.516 1.0374,3.8716 -0.7826,1.3556 -2.516,1.8201 -3.8716,1.0374 v 0 l -86.8571,-50.147 c -1.3556,-0.7826 -1.82,-2.516 -1.0374,-3.8716 0.7827,-1.3556 2.5161,-1.82 3.8717,-1.0374 z" fill="#000000" stroke="none" id="path5"/>
    </g>
    <g text-rendering="geometricPrecision" id="g6">
      <path clip-path="url(#370956565231-clipPath1)" d="m 49.0576,350.5664 v 0 L 152.639,290.7636 c 1.3556,-0.7826 3.089,-0.3182 3.8717,1.0374 0.7826,1.3556 0.3181,3.089 -1.0374,3.8716 v 0 L 51.8918,355.4754 c -1.3556,0.7827 -3.089,0.3182 -3.8716,-1.0374 -0.7827,-1.3556 -0.3182,-3.089 1.0374,-3.8716 z" stroke="none" id="path6"/>
    </g>
    <g fill="#ff0000" font-family="sans-serif" font-size="46px" stroke="#ff0000" text-rendering="geometricPrecision" transform="translate(248.5962,331.6893)" id="g7">
      <text clip-path="url(#370956565736-clipPath1)" stroke="none" x="0" xml:space="preserve" y="43" id="text6">OH</text>
    </g>
  </g>
</svg>