<?xml version="1.0" encoding="UTF-8" standalone="no"?>
<svg xmlns:dc="http://purl.org/dc/elements/1.1/" xmlns:cc="http://creativecommons.org/ns#" xmlns:rdf="http://www.w3.org/1999/02/22-rdf-syntax-ns#" xmlns:svg="http://www.w3.org/2000/svg" xmlns="http://www.w3.org/2000/svg" xmlns:sodipodi="http://sodipodi.sourceforge.net/DTD/sodipodi-0.dtd" xmlns:inkscape="http://www.inkscape.org/namespaces/inkscape" width="533.43994" stroke-miterlimit="10" font-weight="normal" height="557.79584" font-style="normal" font-size="12px" id="svg2" version="1.1" inkscape:version="0.91 r13725" sodipodi:docname="Lorazepam.svg" style="font-style:normal;font-weight:normal;font-size:12px;font-family:Dialog;color-interpolation:auto;fill:#000000;fill-opacity:1;stroke:#000000;stroke-width:1;stroke-linecap:square;stroke-linejoin:miter;stroke-miterlimit:10;stroke-dasharray:none;stroke-dashoffset:0;stroke-opacity:1;color-rendering:auto;image-rendering:auto;shape-rendering:auto;text-rendering:auto">
  <metadata id="metadata201">
    <rdf:RDF>
      <cc:Work rdf:about="">
        <dc:format>image/svg+xml</dc:format>
        <dc:type rdf:resource="http://purl.org/dc/dcmitype/StillImage"/>
        <dc:title/>
      </cc:Work>
    </rdf:RDF>
  </metadata>
  <sodipodi:namedview pagecolor="#ffffff" bordercolor="#666666" borderopacity="1" objecttolerance="10" gridtolerance="10" guidetolerance="10" inkscape:pageopacity="0" inkscape:pageshadow="2" inkscape:window-width="1060" inkscape:window-height="480" id="namedview199" showgrid="false" fit-margin-top="10" fit-margin-left="10" fit-margin-right="10" fit-margin-bottom="10" inkscape:zoom="0.36375" inkscape:cx="267.12763" inkscape:cy="278.76587" inkscape:window-x="0" inkscape:window-y="0" inkscape:window-maximized="0" inkscape:current-layer="svg2"/>
  <!--Generated by Marvin with Batik SVG Generator-->
  <defs id="genericDefs"/>
  <g id="g5" transform="translate(-132.87237,-20.97)">
    <defs id="986893941812-defs1">
      <clipPath clipPathUnits="userSpaceOnUse" id="986893941238-clipPath1">
        <path d="M 0,0 800,0 800,600 0,600 0,0 Z" id="path9" inkscape:connector-curvature="0"/>
      </clipPath>
      <clipPath clipPathUnits="userSpaceOnUse" id="986893941888-clipPath1">
        <path d="m 442.3047,275.4377 c -18.8027,0 -34.0453,15.2425 -34.0453,34.0452 0,18.8027 15.2426,34.0454 34.0453,34.0454 18.8027,0 34.0453,-15.2427 34.0453,-34.0454 0,-18.8027 -15.2426,-34.0452 -34.0453,-34.0452 z" id="path12" inkscape:connector-curvature="0"/>
      </clipPath>
      <clipPath clipPathUnits="userSpaceOnUse" id="986893941639-clipPath1">
        <path d="m 540.5181,157.8243 c -17.7909,0 -32.2132,14.4224 -32.2132,32.2132 0,17.7908 14.4223,32.2132 32.2132,32.2132 17.7908,0 32.2132,-14.4224 32.2132,-32.2132 0,-17.7908 -14.4224,-32.2132 -32.2132,-32.2132 z" id="path15" inkscape:connector-curvature="0"/>
      </clipPath>
      <clipPath clipPathUnits="userSpaceOnUse" id="986893941683-clipPath1">
        <path d="m 347.7085,157.7876 c -16.218,0 -29.3653,13.1473 -29.3653,29.3652 0,16.218 13.1473,29.3653 29.3653,29.3653 16.218,0 29.3653,-13.1473 29.3653,-29.3653 0,-16.2179 -13.1473,-29.3652 -29.3653,-29.3652 z" id="path18" inkscape:connector-curvature="0"/>
      </clipPath>
      <clipPath clipPathUnits="userSpaceOnUse" id="98689394121-clipPath1">
        <path d="m 424.2167,89.289 c -17.6211,0 -31.9058,14.2847 -31.9058,31.9058 0,17.6211 14.2847,31.9058 31.9058,31.9058 17.6211,0 31.9058,-14.2847 31.9058,-31.9058 0,-17.6211 -14.2847,-31.9058 -31.9058,-31.9058 z" id="path21" inkscape:connector-curvature="0"/>
      </clipPath>
      <clipPath clipPathUnits="userSpaceOnUse" id="986893941841-clipPath1">
        <path d="m 488.0212,90.4958 c -17.4819,0 -31.6537,14.1718 -31.6537,31.6536 0,17.4818 14.1718,31.6537 31.6537,31.6537 17.4818,0 31.6536,-14.1719 31.6536,-31.6537 0,-17.4818 -14.1718,-31.6536 -31.6536,-31.6536 z" id="path24" inkscape:connector-curvature="0"/>
      </clipPath>
      <clipPath clipPathUnits="userSpaceOnUse" id="986893941635-clipPath1">
        <path d="m 220.1582,270.851 c -17.2029,0 -31.1487,13.9457 -31.1487,31.1487 0,17.2029 13.9458,31.1487 31.1487,31.1487 17.203,0 31.1487,-13.9458 31.1487,-31.1487 0,-17.203 -13.9457,-31.1487 -31.1487,-31.1487 z" id="path27" inkscape:connector-curvature="0"/>
      </clipPath>
      <clipPath clipPathUnits="userSpaceOnUse" id="986893941869-clipPath1">
        <path d="m 514.6912,407.6527 c -17.4823,0 -31.6545,14.1722 -31.6545,31.6545 0,17.4823 14.1722,31.6545 31.6545,31.6545 17.4823,0 31.6545,-14.1722 31.6545,-31.6545 0,-17.4823 -14.1722,-31.6545 -31.6545,-31.6545 z" id="path30" inkscape:connector-curvature="0"/>
      </clipPath>
      <clipPath clipPathUnits="userSpaceOnUse" id="986893941904-clipPath1">
        <path d="m 540.5181,156.3963 c -18.5796,0 -33.6412,15.0617 -33.6412,33.6412 0,18.5795 15.0616,33.6412 33.6412,33.6412 18.5795,0 33.6412,-15.0617 33.6412,-33.6412 0,-18.5795 -15.0617,-33.6412 -33.6412,-33.6412 z" id="path33" inkscape:connector-curvature="0"/>
      </clipPath>
      <clipPath clipPathUnits="userSpaceOnUse" id="986893941421-clipPath1">
        <path d="m -509.1098,-255.4088 800,0 0,600 -800,0 0,-600 z" id="path36" inkscape:connector-curvature="0"/>
      </clipPath>
      <clipPath clipPathUnits="userSpaceOnUse" id="986893941743-clipPath1">
        <path d="m -374.6347,-102.8656 800,0 0,600 -800,0 0,-600 z" id="path39" inkscape:connector-curvature="0"/>
      </clipPath>
      <clipPath clipPathUnits="userSpaceOnUse" id="986893941607-clipPath1">
        <path d="m -141.1878,-341.4231 800.0001,0 0,600 -800.0001,0 0,-600 z" id="path42" inkscape:connector-curvature="0"/>
      </clipPath>
      <clipPath clipPathUnits="userSpaceOnUse" id="986893941141-clipPath1">
        <path d="m -514.9321,-27.3958 800,0 0,600 -800,0 0,-600 z" id="path45" inkscape:connector-curvature="0"/>
      </clipPath>
      <clipPath clipPathUnits="userSpaceOnUse" id="986893941504-clipPath1">
        <path d="m -574.45,-379.5149 800,0 0,600 -800,0 0,-600 z" id="path48" inkscape:connector-curvature="0"/>
      </clipPath>
      <clipPath clipPathUnits="userSpaceOnUse" id="986893941105-clipPath1">
        <path d="m -612.4841,-154.1949 800,0 0,600 -800,0 0,-600 z" id="path51" inkscape:connector-curvature="0"/>
      </clipPath>
    </defs>
    <g id="g53" style="text-rendering:geometricPrecision">
      <path d="m 441.9736,393.6967 c -0.8808,-0.5263 -2.021,-0.239 -2.5473,0.6419 -0.5262,0.8808 -0.239,2.021 0.6419,2.5473 l 73.6703,44.0159 c 0.8808,0.5263 2.021,0.239 2.5473,-0.6419 0.5263,-0.8808 0.239,-2.021 -0.6419,-2.5473 z m 1.3272,18.8248 c -0.8808,-0.5263 -2.021,-0.239 -2.5473,0.6419 -0.5263,0.8808 -0.2389,2.021 0.6419,2.5473 l 55.1371,32.9429 c 0.8809,0.5262 2.0211,0.2389 2.5473,-0.6419 0.5263,-0.8808 0.239,-2.021 -0.6418,-2.5473 z" clip-path="url(#986893941238-clipPath1)" id="path55" inkscape:connector-curvature="0" style="stroke:none"/>
    </g>
    <g id="g57" style="text-rendering:geometricPrecision">
      <path d="m 512.8339,439.2794 -1.2838,85.8084 c -0.0153,1.0259 0.8035,1.8697 1.8295,1.885 1.026,0.0154 1.8698,-0.8035 1.8851,-1.8294 l 1.2838,-85.8084 c 0.0153,-1.0259 -0.8036,-1.8697 -1.8295,-1.8851 -1.0259,-0.0153 -1.8698,0.8036 -1.8851,1.8295 z" clip-path="url(#986893941238-clipPath1)" id="path59" inkscape:connector-curvature="0" style="stroke:none"/>
    </g>
    <g id="g61" style="text-rendering:geometricPrecision">
      <path d="m 514.312,526.7379 c 0.8962,-0.4997 1.2175,-1.6307 0.7178,-2.5269 -0.4997,-0.8962 -1.6308,-1.2175 -2.527,-0.7178 l -74.9541,41.7924 c -0.8961,0.4997 -1.2174,1.6307 -0.7177,2.5269 0.4997,0.8962 1.6307,1.2175 2.5269,0.7178 z m -16.9664,-8.263 c 0.8963,-0.4997 1.2175,-1.6308 0.7178,-2.527 -0.4996,-0.8961 -1.6307,-1.2174 -2.5269,-0.7177 l -56.098,31.2787 c -0.8962,0.4997 -1.2175,1.6307 -0.7178,2.5269 0.4997,0.8962 1.6308,1.2175 2.527,0.7178 z" clip-path="url(#986893941238-clipPath1)" id="path63" inkscape:connector-curvature="0" style="stroke:none"/>
    </g>
    <g id="g65" style="text-rendering:geometricPrecision">
      <path d="m 439.406,565.3134 -73.6703,-44.016 c -0.8808,-0.5263 -2.021,-0.239 -2.5473,0.6419 -0.5262,0.8808 -0.2389,2.021 0.6419,2.5473 l 73.6703,44.0159 c 0.8808,0.5263 2.021,0.239 2.5473,-0.6418 0.5263,-0.8809 0.239,-2.0211 -0.6419,-2.5473 z" clip-path="url(#986893941238-clipPath1)" id="path67" inkscape:connector-curvature="0" style="stroke:none"/>
    </g>
    <g id="g69" style="text-rendering:geometricPrecision">
      <path d="m 362.9257,522.8642 c -0.0153,1.0259 0.8036,1.8697 1.8295,1.8851 1.026,0.0153 1.8698,-0.8036 1.8852,-1.8296 l 1.2837,-85.8083 c 0.0154,-1.0259 -0.8035,-1.8697 -1.8295,-1.8851 -1.026,-0.0153 -1.8697,0.8036 -1.8851,1.8295 z m 15.6392,-10.5618 c -0.0154,1.026 0.8035,1.8697 1.8295,1.8851 1.026,0.0153 1.8698,-0.8035 1.8851,-1.8295 l 0.9608,-64.2216 c 0.0154,-1.026 -0.8035,-1.8698 -1.8295,-1.8851 -1.026,-0.0154 -1.8698,0.8035 -1.8851,1.8295 z" clip-path="url(#986893941238-clipPath1)" id="path71" inkscape:connector-curvature="0" style="stroke:none"/>
    </g>
    <g id="g73" style="text-rendering:geometricPrecision">
      <path d="m 366.9714,438.706 74.9541,-41.7924 c 0.8962,-0.4997 1.2175,-1.6307 0.7178,-2.5269 -0.4997,-0.8962 -1.6308,-1.2175 -2.527,-0.7178 l -74.9541,41.7924 c -0.8961,0.4997 -1.2174,1.6307 -0.7177,2.5269 0.4997,0.8962 1.6307,1.2175 2.5269,0.7178 z" clip-path="url(#986893941238-clipPath1)" id="path75" inkscape:connector-curvature="0" style="stroke:none"/>
    </g>
    <g id="g77" style="text-rendering:geometricPrecision">
      <path d="m 442.8782,395.3191 1.2838,-85.8084 c 0.0153,-1.0259 -0.8036,-1.8697 -1.8295,-1.8851 -1.026,-0.0153 -1.8698,0.8036 -1.8851,1.8296 l -1.2838,85.8083 c -0.0153,1.026 0.8036,1.8697 1.8295,1.8851 1.026,0.0153 1.8698,-0.8036 1.8851,-1.8295 z" clip-path="url(#986893941238-clipPath1)" id="path79" inkscape:connector-curvature="0" style="stroke:none"/>
    </g>
    <g id="g81" style="text-rendering:geometricPrecision">
      <path d="M 443.1356,307.8216 366.382,269.4341 c -0.9177,-0.4589 -2.0333,-0.0872 -2.4923,0.8305 -0.4589,0.9177 -0.0872,2.0332 0.8305,2.4922 l 76.7536,38.3875 c 0.9177,0.4589 2.0332,0.0872 2.4922,-0.8305 0.459,-0.9177 0.0873,-2.0332 -0.8304,-2.4922 z" clip-path="url(#986893941238-clipPath1)" id="path83" inkscape:connector-curvature="0" style="stroke:none"/>
    </g>
    <g id="g85" style="fill:#333399;stroke:#333399;text-rendering:geometricPrecision">
      <path d="m 443.4663,289.8378 c -0.931,0.4313 -1.3359,1.5352 -0.9046,2.4662 0.4313,0.931 1.5352,1.336 2.4663,0.9046 l 53.3332,-24.708 c 0.931,-0.4313 1.336,-1.5352 0.9046,-2.4662 -0.4313,-0.931 -1.5352,-1.3359 -2.4662,-0.9046 z m -1.9424,17.9597 c -0.9311,0.4313 -1.336,1.5352 -0.9046,2.4663 0.4313,0.931 1.5352,1.3359 2.4662,0.9046 l 61.7826,-28.6224 c 0.931,-0.4313 1.3359,-1.5352 0.9046,-2.4663 -0.4313,-0.931 -1.5352,-1.3359 -2.4662,-0.9046 z" clip-path="url(#986893941238-clipPath1)" id="path87" inkscape:connector-curvature="0" style="stroke:none"/>
      <path d="m 443.4663,289.8378 c -0.931,0.4313 -1.3359,1.5352 -0.9046,2.4662 0.4313,0.931 1.5352,1.336 2.4663,0.9046 l 53.3332,-24.708 c 0.931,-0.4313 1.336,-1.5352 0.9046,-2.4662 -0.4313,-0.931 -1.5352,-1.3359 -2.4662,-0.9046 z m -1.9424,17.9597 c -0.9311,0.4313 -1.336,1.5352 -0.9046,2.4663 0.4313,0.931 1.5352,1.3359 2.4662,0.9046 l 61.7826,-28.6224 c 0.931,-0.4313 1.3359,-1.5352 0.9046,-2.4663 -0.4313,-0.931 -1.5352,-1.3359 -2.4662,-0.9046 z" clip-path="url(#986893941888-clipPath1)" id="path89" inkscape:connector-curvature="0" style="fill:#000000;stroke:none"/>
    </g>
    <g id="g91" style="text-rendering:geometricPrecision">
      <path d="m 346.3487,264.1413 c 0.2133,1.0037 1.1995,1.6441 2.2031,1.4308 1.0037,-0.2134 1.6441,-1.1995 1.4307,-2.2032 l -13.3539,-62.8252 c -0.2133,-1.0037 -1.1995,-1.6441 -2.2031,-1.4308 -1.0037,0.2134 -1.6441,1.1995 -1.4307,2.2032 z m 17.3855,7.3404 c 0.2133,1.0036 1.1994,1.644 2.2031,1.4307 1.0036,-0.2134 1.644,-1.1995 1.4307,-2.2031 l -17.8425,-83.9427 c -0.2134,-1.0036 -1.1995,-1.644 -2.2032,-1.4307 -1.0036,0.2134 -1.644,1.1995 -1.4307,2.2031 z" clip-path="url(#986893941238-clipPath1)" id="path93" inkscape:connector-curvature="0" style="stroke:none"/>
    </g>
    <g id="g95" style="text-rendering:geometricPrecision">
      <path d="m 486.5518,123.2857 52.4968,67.8881 c 0.6277,0.8117 1.7941,0.9608 2.6058,0.3331 0.8117,-0.6277 0.9608,-1.794 0.3331,-2.6057 l -52.4969,-67.8881 c -0.6277,-0.8117 -1.794,-0.9608 -2.6057,-0.3331 -0.8117,0.6277 -0.9608,1.794 -0.3331,2.6057 z" clip-path="url(#986893941238-clipPath1)" id="path97" inkscape:connector-curvature="0" style="stroke:none"/>
    </g>
    <g id="g99" style="fill:#333399;stroke:#333399;text-rendering:geometricPrecision">
      <path d="m 538.7135,189.5971 -15.2742,62.5895 c -0.2433,0.9969 0.3673,2.0017 1.3642,2.245 0.9968,0.2432 2.0017,-0.3674 2.2449,-1.3642 l 15.2742,-62.5895 c 0.2433,-0.9969 -0.3673,-2.0017 -1.3642,-2.245 -0.9968,-0.2432 -2.0016,0.3674 -2.2449,1.3642 z" clip-path="url(#986893941238-clipPath1)" id="path101" inkscape:connector-curvature="0" style="stroke:none"/>
      <path d="m 538.7135,189.5971 -15.2742,62.5895 c -0.2433,0.9969 0.3673,2.0017 1.3642,2.245 0.9968,0.2432 2.0017,-0.3674 2.2449,-1.3642 l 15.2742,-62.5895 c 0.2433,-0.9969 -0.3673,-2.0017 -1.3642,-2.245 -0.9968,-0.2432 -2.0016,0.3674 -2.2449,1.3642 z" clip-path="url(#986893941639-clipPath1)" id="path103" inkscape:connector-curvature="0" style="fill:#000000;stroke:none"/>
    </g>
    <g id="g105" style="fill:#333399;stroke:#333399;text-rendering:geometricPrecision">
      <path d="m 349.1433,188.3326 37.3007,-45.3645 c 0.6517,-0.7926 0.5375,-1.9628 -0.255,-2.6145 -0.7926,-0.6517 -1.9629,-0.5375 -2.6145,0.255 l -37.3008,45.3645 c -0.6516,0.7926 -0.5375,1.9628 0.2551,2.6145 0.7926,0.6517 1.9628,0.5376 2.6145,-0.255 z" clip-path="url(#986893941238-clipPath1)" id="path107" inkscape:connector-curvature="0" style="stroke:none"/>
      <path d="m 349.1433,188.3326 37.3007,-45.3645 c 0.6517,-0.7926 0.5375,-1.9628 -0.255,-2.6145 -0.7926,-0.6517 -1.9629,-0.5375 -2.6145,0.255 l -37.3008,45.3645 c -0.6516,0.7926 -0.5375,1.9628 0.2551,2.6145 0.7926,0.6517 1.9628,0.5376 2.6145,-0.255 z" clip-path="url(#986893941683-clipPath1)" id="path109" inkscape:connector-curvature="0" style="fill:#000000;stroke:none"/>
    </g>
    <g id="g111" style="text-rendering:geometricPrecision">
      <path d="m 424.1889,123.0521 63.8045,0.9546 c 1.0259,0.0154 1.8697,-0.8035 1.8851,-1.8295 0.0153,-1.026 -0.8036,-1.8697 -1.8295,-1.8851 l -63.8045,-0.9546 c -1.026,-0.0153 -1.8697,0.8036 -1.8851,1.8295 -0.0153,1.026 0.8036,1.8698 1.8295,1.8851 z" clip-path="url(#986893941238-clipPath1)" id="path113" inkscape:connector-curvature="0" style="stroke:none"/>
      <path d="m 424.1889,123.0521 63.8045,0.9546 c 1.0259,0.0154 1.8697,-0.8035 1.8851,-1.8295 0.0153,-1.026 -0.8036,-1.8697 -1.8295,-1.8851 l -63.8045,-0.9546 c -1.026,-0.0153 -1.8697,0.8036 -1.8851,1.8295 -0.0153,1.026 0.8036,1.8698 1.8295,1.8851 z" clip-path="url(#98689394121-clipPath1)" id="path115" inkscape:connector-curvature="0" style="fill:#333399;stroke:none"/>
    </g>
    <g id="g117" style="text-rendering:geometricPrecision">
      <path d="m 269.6696,180.7405 c 0.7625,-0.6866 0.824,-1.8608 0.1374,-2.6234 -0.6865,-0.7625 -1.8607,-0.824 -2.6233,-0.1374 l -47.7313,42.9774 c -0.7625,0.6866 -0.8241,1.8608 -0.1375,2.6234 0.6866,0.7625 1.8608,0.824 2.6233,0.1374 z m -2.3359,-18.7264 c 0.7626,-0.6866 0.8241,-1.8608 0.1375,-2.6234 -0.6866,-0.7625 -1.8608,-0.824 -2.6233,-0.1374 l -63.7751,57.4234 c -0.7626,0.6865 -0.8241,1.8608 -0.1375,2.6233 0.6865,0.7625 1.8608,0.824 2.6233,0.1375 z" clip-path="url(#986893941238-clipPath1)" id="path119" inkscape:connector-curvature="0" style="stroke:none"/>
    </g>
    <g id="g121" style="text-rendering:geometricPrecision">
      <path d="m 200.4987,218.4433 17.8426,83.9426 c 0.2133,1.0036 1.1995,1.644 2.2031,1.4307 1.0037,-0.2134 1.6441,-1.1995 1.4307,-2.2031 l -17.8425,-83.9426 c -0.2133,-1.0037 -1.1995,-1.6441 -2.2031,-1.4308 -1.0037,0.2134 -1.6441,1.1995 -1.4308,2.2032 z" clip-path="url(#986893941238-clipPath1)" id="path123" inkscape:connector-curvature="0" style="stroke:none"/>
    </g>
    <g id="g125" style="text-rendering:geometricPrecision">
      <path d="m 235.7818,288.847 c -0.9758,-0.3171 -2.0235,0.2167 -2.3405,1.1926 -0.3171,0.9758 0.2167,2.0235 1.1926,2.3406 l 61.0852,19.8478 c 0.9758,0.317 2.0235,-0.2168 2.3406,-1.1926 0.3171,-0.9759 -0.2167,-2.0236 -1.1926,-2.3406 z m -15.0496,11.3861 c -0.9758,-0.3171 -2.0235,0.2167 -2.3406,1.1926 -0.3171,0.9758 0.2168,2.0235 1.1926,2.3406 l 81.6177,26.5192 c 0.9759,0.317 2.0235,-0.2168 2.3406,-1.1926 0.3171,-0.9759 -0.2167,-2.0236 -1.1926,-2.3406 z" clip-path="url(#986893941238-clipPath1)" id="path127" inkscape:connector-curvature="0" style="stroke:none"/>
    </g>
    <g id="g129" style="text-rendering:geometricPrecision">
      <path d="m 303.0188,329.8993 63.7752,-57.4234 c 0.7625,-0.6866 0.824,-1.8608 0.1375,-2.6234 -0.6866,-0.7625 -1.8608,-0.824 -2.6233,-0.1374 l -63.7752,57.4234 c -0.7625,0.6865 -0.8241,1.8608 -0.1375,2.6233 0.6866,0.7625 1.8608,0.824 2.6233,0.1375 z" clip-path="url(#986893941238-clipPath1)" id="path131" inkscape:connector-curvature="0" style="stroke:none"/>
    </g>
    <g id="g133" style="text-rendering:geometricPrecision">
      <path d="m 348.2825,185.3863 -81.6177,-26.5192 c -0.9758,-0.3171 -2.0235,0.2167 -2.3406,1.1925 -0.3171,0.9759 0.2168,2.0236 1.1926,2.3407 l 81.6177,26.5191 c 0.9759,0.3171 2.0236,-0.2167 2.3406,-1.1925 0.3171,-0.9759 -0.2167,-2.0236 -1.1926,-2.3406 z" clip-path="url(#986893941238-clipPath1)" id="path135" inkscape:connector-curvature="0" style="stroke:none"/>
    </g>
    <g id="g137" style="fill:#ff0000;stroke:#ff0000;text-rendering:geometricPrecision">
      <path d="m 477.7704,121.19 c -0.459,0.9177 -0.0873,2.0332 0.8304,2.4922 0.9177,0.459 2.0332,0.0873 2.4922,-0.8304 l 29.9855,-59.9542 c 0.4589,-0.9177 0.0872,-2.0332 -0.8305,-2.4922 -0.9177,-0.459 -2.0332,-0.0873 -2.4922,0.8304 z m 13.8444,6.9242 c -0.4589,0.9177 -0.0872,2.0332 0.8305,2.4922 0.9176,0.459 2.0332,0.0872 2.4922,-0.8305 l 29.9854,-59.9542 c 0.459,-0.9177 0.0873,-2.0332 -0.8304,-2.4922 -0.9178,-0.4589 -2.0332,-0.0872 -2.4922,0.8305 z" clip-path="url(#986893941238-clipPath1)" id="path139" inkscape:connector-curvature="0" style="stroke:none"/>
      <path d="m 477.7704,121.19 c -0.459,0.9177 -0.0873,2.0332 0.8304,2.4922 0.9177,0.459 2.0332,0.0873 2.4922,-0.8304 l 29.9855,-59.9542 c 0.4589,-0.9177 0.0872,-2.0332 -0.8305,-2.4922 -0.9177,-0.459 -2.0332,-0.0873 -2.4922,0.8304 z m 13.8444,6.9242 c -0.4589,0.9177 -0.0872,2.0332 0.8305,2.4922 0.9176,0.459 2.0332,0.0872 2.4922,-0.8305 l 29.9854,-59.9542 c 0.459,-0.9177 0.0873,-2.0332 -0.8304,-2.4922 -0.9178,-0.4589 -2.0332,-0.0872 -2.4922,0.8305 z" clip-path="url(#986893941841-clipPath1)" id="path141" inkscape:connector-curvature="0" style="fill:#000000;stroke:none"/>
    </g>
    <g id="g143" style="fill:#009900;stroke:#009900;text-rendering:geometricPrecision">
      <path d="m 218.9153,300.6193 -46.296,41.6851 c -0.7625,0.6865 -0.8241,1.8608 -0.1375,2.6233 0.6866,0.7625 1.8608,0.824 2.6233,0.1375 l 46.296,-41.6851 c 0.7626,-0.6866 0.8241,-1.8608 0.1375,-2.6234 -0.6866,-0.7625 -1.8608,-0.824 -2.6233,-0.1374 z" clip-path="url(#986893941238-clipPath1)" id="path145" inkscape:connector-curvature="0" style="stroke:none"/>
      <path d="m 218.9153,300.6193 -46.296,41.6851 c -0.7625,0.6865 -0.8241,1.8608 -0.1375,2.6233 0.6866,0.7625 1.8608,0.824 2.6233,0.1375 l 46.296,-41.6851 c 0.7626,-0.6866 0.8241,-1.8608 0.1375,-2.6234 -0.6866,-0.7625 -1.8608,-0.824 -2.6233,-0.1374 z" clip-path="url(#986893941635-clipPath1)" id="path147" inkscape:connector-curvature="0" style="fill:#000000;stroke:none"/>
    </g>
    <g id="g149" style="fill:#009900;stroke:#009900;text-rendering:geometricPrecision">
      <path d="m 515.5958,440.9296 55.2946,-30.8308 c 0.8962,-0.4997 1.2174,-1.6308 0.7178,-2.5269 -0.4997,-0.8962 -1.6308,-1.2175 -2.527,-0.7178 l -55.2946,30.8308 c -0.8962,0.4996 -1.2174,1.6307 -0.7178,2.5269 0.4997,0.8962 1.6308,1.2175 2.527,0.7178 z" clip-path="url(#986893941238-clipPath1)" id="path151" inkscape:connector-curvature="0" style="stroke:none"/>
      <path d="m 515.5958,440.9296 55.2946,-30.8308 c 0.8962,-0.4997 1.2174,-1.6308 0.7178,-2.5269 -0.4997,-0.8962 -1.6308,-1.2175 -2.527,-0.7178 l -55.2946,30.8308 c -0.8962,0.4996 -1.2174,1.6307 -0.7178,2.5269 0.4997,0.8962 1.6308,1.2175 2.527,0.7178 z" clip-path="url(#986893941869-clipPath1)" id="path153" inkscape:connector-curvature="0" style="fill:#000000;stroke:none"/>
    </g>
    <g id="g155" style="fill:#ff0000;stroke:#ff0000;text-rendering:geometricPrecision">
      <path d="m 540.9043,191.8544 65.8121,-13.9888 c 1.0037,-0.2133 1.6441,-1.1994 1.4308,-2.2031 -0.2134,-1.0037 -1.1995,-1.6441 -2.2032,-1.4307 l -65.8121,13.9888 c -1.0037,0.2133 -1.644,1.1994 -1.4307,2.2031 0.2133,1.0037 1.1994,1.644 2.2031,1.4307 z" clip-path="url(#986893941238-clipPath1)" id="path157" inkscape:connector-curvature="0" style="stroke:none"/>
      <path d="m 540.9043,191.8544 65.8121,-13.9888 c 1.0037,-0.2133 1.6441,-1.1994 1.4308,-2.2031 -0.2134,-1.0037 -1.1995,-1.6441 -2.2032,-1.4307 l -65.8121,13.9888 c -1.0037,0.2133 -1.644,1.1994 -1.4307,2.2031 0.2133,1.0037 1.1994,1.644 2.2031,1.4307 z" clip-path="url(#986893941904-clipPath1)" id="path159" inkscape:connector-curvature="0" style="fill:#000000;stroke:none"/>
    </g>
    <g id="g161" style="fill:#ffffff;stroke:#ffffff;text-rendering:geometricPrecision">
      <path d="m 518.6118,259.4048 c -3.8671,0 -7.002,3.1349 -7.002,7.002 l 0,14.0039 c 0,3.8671 3.1349,7.002 7.002,7.002 l 3.1211,0 c 3.8671,0 7.002,-3.1349 7.002,-7.002 l 0,-14.0039 c 0,-3.8671 -3.1349,-7.002 -7.002,-7.002 z" clip-path="url(#986893941238-clipPath1)" id="path163" inkscape:connector-curvature="0" style="stroke:none"/>
    </g>
    <g font-size="30px" transform="translate(509.1098,255.4088)" id="g165" style="font-size:30px;font-family:sans-serif;fill:#333399;stroke:#333399;text-rendering:geometricPrecision">
      <text x="0" xml:space="preserve" y="29" clip-path="url(#986893941421-clipPath1)" id="text167" style="stroke:none">N</text>
    </g>
    <g font-size="30px" id="g169" style="font-size:30px;font-family:sans-serif;fill:#ffffff;stroke:#ffffff;text-rendering:geometricPrecision">
      <path d="m 383.6367,106.8617 c -3.8671,0 -7.002,3.1349 -7.002,7.002 l 0,14.0039 c 0,3.867 3.1349,7.0019 7.002,7.0019 l 26.1211,0 c 3.867,0 7.0019,-3.1349 7.0019,-7.0019 l 0,-14.0039 c 0,-3.8671 -3.1349,-7.002 -7.0019,-7.002 z" clip-path="url(#986893941238-clipPath1)" id="path171" inkscape:connector-curvature="0" style="stroke:none"/>
      <text x="0" y="29" transform="translate(374.6347,102.8656)" clip-path="url(#986893941743-clipPath1)" xml:space="preserve" id="text173" style="fill:#333399;stroke:none">HN</text>
    </g>
    <g font-size="30px" id="g175" style="font-size:30px;font-family:sans-serif;fill:#ffffff;stroke:#ffffff;text-rendering:geometricPrecision">
      <path d="m 151.3342,344.4113 c -4.223,0 -7.6464,3.4235 -7.6464,7.6465 l 0,15.293 c 0,4.2231 3.4234,7.6465 7.6464,7.6465 l 10.0977,0 c 4.223,0 7.6465,-3.4234 7.6465,-7.6465 l 0,-15.293 c 0,-4.223 -3.4235,-7.6465 -7.6465,-7.6465 z" clip-path="url(#986893941238-clipPath1)" id="path177" inkscape:connector-curvature="0" style="stroke:none"/>
      <text x="0" y="29" transform="translate(141.1878,341.4231)" clip-path="url(#986893941607-clipPath1)" xml:space="preserve" id="text179" style="fill:#009900;stroke:none">Cl</text>
    </g>
    <g font-size="30px" id="g181" style="font-size:30px;font-family:sans-serif;fill:#ffffff;stroke:#ffffff;text-rendering:geometricPrecision">
      <path d="m 523.2856,30.97 c -4.0612,0 -7.3535,3.2923 -7.3535,7.3535 l 0,14.7071 c 0,4.0612 3.2923,7.3535 7.3535,7.3535 l 6.2461,0 c 4.0613,0 7.3535,-3.2923 7.3535,-7.3535 l 0,-14.7071 c 0,-4.0612 -3.2922,-7.3535 -7.3535,-7.3535 z" clip-path="url(#986893941238-clipPath1)" id="path183" inkscape:connector-curvature="0" style="stroke:none"/>
      <text x="0" y="29" transform="translate(514.9321,27.3958)" clip-path="url(#986893941141-clipPath1)" xml:space="preserve" id="text185" style="fill:#ff0000;stroke:none">O</text>
    </g>
    <g font-size="30px" id="g187" style="font-size:30px;font-family:sans-serif;fill:#ffffff;stroke:#ffffff;text-rendering:geometricPrecision">
      <path d="m 584.5964,382.5031 c -4.223,0 -7.6464,3.4235 -7.6464,7.6465 l 0,15.293 c 0,4.223 3.4234,7.6465 7.6464,7.6465 l 10.0977,0 c 4.2231,0 7.6465,-3.4235 7.6465,-7.6465 l 0,-15.293 c 0,-4.223 -3.4234,-7.6465 -7.6465,-7.6465 z" clip-path="url(#986893941238-clipPath1)" id="path189" inkscape:connector-curvature="0" style="stroke:none"/>
      <text x="0" y="29" transform="translate(574.45,379.5149)" clip-path="url(#986893941504-clipPath1)" xml:space="preserve" id="text191" style="fill:#009900;stroke:none">Cl</text>
    </g>
    <g font-size="30px" id="g193" style="font-size:30px;font-family:sans-serif;fill:#ffffff;stroke:#ffffff;text-rendering:geometricPrecision">
      <path d="m 621.3376,157.7692 c -4.0612,0 -7.3535,3.2922 -7.3535,7.3535 l 0,14.707 c 0,4.0612 3.2923,7.3535 7.3535,7.3535 l 27.6211,0 c 4.0613,0 7.3536,-3.2923 7.3536,-7.3535 l 0,-14.707 c 0,-4.0613 -3.2923,-7.3535 -7.3536,-7.3535 z" clip-path="url(#986893941238-clipPath1)" id="path195" inkscape:connector-curvature="0" style="stroke:none"/>
      <text x="0" y="29" transform="translate(612.4841,154.1949)" clip-path="url(#986893941105-clipPath1)" xml:space="preserve" id="text197" style="fill:#ff0000;stroke:none">OH</text>
    </g>
  </g>
</svg>