<?xml version="1.0" encoding="UTF-8" standalone="no"?>
<svg xmlns:dc="http://purl.org/dc/elements/1.1/" xmlns:cc="http://creativecommons.org/ns#" xmlns:rdf="http://www.w3.org/1999/02/22-rdf-syntax-ns#" xmlns:svg="http://www.w3.org/2000/svg" xmlns="http://www.w3.org/2000/svg" xmlns:sodipodi="http://sodipodi.sourceforge.net/DTD/sodipodi-0.dtd" xmlns:inkscape="http://www.inkscape.org/namespaces/inkscape" width="749.2229" stroke-miterlimit="10" font-weight="normal" height="424.65778" font-style="normal" font-size="12px" id="svg2" version="1.1" inkscape:version="0.91 r13725" sodipodi:docname="MDPV.svg" style="font-style:normal;font-weight:normal;font-size:12px;font-family:Dialog;color-interpolation:auto;fill:#000000;fill-opacity:1;stroke:#000000;stroke-width:1;stroke-linecap:square;stroke-linejoin:miter;stroke-miterlimit:10;stroke-dasharray:none;stroke-dashoffset:0;stroke-opacity:1;color-rendering:auto;image-rendering:auto;shape-rendering:auto;text-rendering:auto">
  <metadata id="metadata179">
    <rdf:RDF>
      <cc:Work rdf:about="">
        <dc:format>image/svg+xml</dc:format>
        <dc:type rdf:resource="http://purl.org/dc/dcmitype/StillImage"/>
        <dc:title/>
      </cc:Work>
    </rdf:RDF>
  </metadata>
  <sodipodi:namedview pagecolor="#ffffff" bordercolor="#666666" borderopacity="1" objecttolerance="10" gridtolerance="10" guidetolerance="10" inkscape:pageopacity="0" inkscape:pageshadow="2" inkscape:window-width="1060" inkscape:window-height="480" id="namedview177" showgrid="false" fit-margin-top="10" fit-margin-left="10" fit-margin-right="10" fit-margin-bottom="10" inkscape:zoom="0.36375" inkscape:cx="374.62031" inkscape:cy="212.4784" inkscape:window-x="0" inkscape:window-y="0" inkscape:window-maximized="0" inkscape:current-layer="svg2"/>
  <!--Generated by Marvin with Batik SVG Generator-->
  <defs id="genericDefs"/>
  <g id="g5" transform="translate(-25.379686,-87.82061)">
    <defs id="997280978657-defs1">
      <clipPath clipPathUnits="userSpaceOnUse" id="997280978737-clipPath1">
        <path d="M 0,0 800,0 800,600 0,600 0,0 Z" id="path9" inkscape:connector-curvature="0"/>
      </clipPath>
      <clipPath clipPathUnits="userSpaceOnUse" id="997280978605-clipPath1">
        <path d="m 79.7671,220.0263 c -19.861,0 -35.9615,16.1005 -35.9615,35.9615 0,19.861 16.1005,35.9616 35.9615,35.9616 19.861,0 35.9616,-16.1006 35.9616,-35.9616 0,-19.861 -16.1006,-35.9615 -35.9616,-35.9615 z" id="path12" inkscape:connector-curvature="0"/>
      </clipPath>
      <clipPath clipPathUnits="userSpaceOnUse" id="997280978952-clipPath1">
        <path d="m 187.204,227.6613 c -20.9152,0 -37.8704,16.9551 -37.8704,37.8704 0,20.9152 16.9552,37.8703 37.8704,37.8703 20.9153,0 37.8704,-16.9551 37.8704,-37.8703 0,-20.9153 -16.9551,-37.8704 -37.8704,-37.8704 z" id="path15" inkscape:connector-curvature="0"/>
      </clipPath>
      <clipPath clipPathUnits="userSpaceOnUse" id="997280978616-clipPath1">
        <path d="m 37.4858,277.9379 c -20.0107,0 -36.2325,16.2219 -36.2325,36.2325 0,20.0107 16.2218,36.2326 36.2325,36.2326 20.0107,0 36.2326,-16.2219 36.2326,-36.2326 0,-20.0106 -16.2219,-36.2325 -36.2326,-36.2325 z" id="path18" inkscape:connector-curvature="0"/>
      </clipPath>
      <clipPath clipPathUnits="userSpaceOnUse" id="997280978530-clipPath1">
        <path d="m 187.204,324.9606 c -20.918,0 -37.8755,16.9574 -37.8755,37.8755 0,20.918 16.9575,37.8755 37.8755,37.8755 20.9181,0 37.8755,-16.9575 37.8755,-37.8755 0,-20.9181 -16.9574,-37.8755 -37.8755,-37.8755 z" id="path21" inkscape:connector-curvature="0"/>
      </clipPath>
      <clipPath clipPathUnits="userSpaceOnUse" id="997280978743-clipPath1">
        <path d="m 524.2475,227.2925 c -21.1346,0 -38.2676,17.133 -38.2676,38.2676 0,21.1346 17.133,38.2676 38.2676,38.2676 21.1346,0 38.2676,-17.133 38.2676,-38.2676 0,-21.1346 -17.133,-38.2676 -38.2676,-38.2676 z" id="path24" inkscape:connector-curvature="0"/>
      </clipPath>
      <clipPath clipPathUnits="userSpaceOnUse" id="99728097844-clipPath1">
        <path d="m 439.9921,180.927 c -19.8725,0 -35.9824,16.1099 -35.9824,35.9824 0,19.8726 16.1099,35.9824 35.9824,35.9824 19.8726,0 35.9824,-16.1098 35.9824,-35.9824 0,-19.8725 -16.1098,-35.9824 -35.9824,-35.9824 z" id="path27" inkscape:connector-curvature="0"/>
      </clipPath>
      <clipPath clipPathUnits="userSpaceOnUse" id="99728097877-clipPath1">
        <path d="m 626.7239,186.3486 c -21.361,0 -38.6776,17.3165 -38.6776,38.6776 0,21.361 17.3166,38.6776 38.6776,38.6776 21.3611,0 38.6777,-17.3166 38.6777,-38.6776 0,-21.3611 -17.3166,-38.6776 -38.6777,-38.6776 z" id="path30" inkscape:connector-curvature="0"/>
      </clipPath>
      <clipPath clipPathUnits="userSpaceOnUse" id="997280978173-clipPath1">
        <path d="m 611.0527,156.2439 c -20.151,0 -36.4865,16.3355 -36.4865,36.4864 0,20.1509 16.3355,36.4865 36.4865,36.4865 20.1509,0 36.4864,-16.3356 36.4864,-36.4865 0,-20.1509 -16.3355,-36.4864 -36.4864,-36.4864 z" id="path33" inkscape:connector-curvature="0"/>
      </clipPath>
      <clipPath clipPathUnits="userSpaceOnUse" id="99728097896-clipPath1">
        <path d="m -81.853,-214.965 800,0 0,600 -800,0 0,-600 z" id="path36" inkscape:connector-curvature="0"/>
      </clipPath>
      <clipPath clipPathUnits="userSpaceOnUse" id="997280978460-clipPath1">
        <path d="m -81.8374,-372.3825 800.0001,0 0,600 -800.0001,0 0,-600 z" id="path39" inkscape:connector-curvature="0"/>
      </clipPath>
      <clipPath clipPathUnits="userSpaceOnUse" id="997280978487-clipPath1">
        <path d="m -595.8438,-196.4182 800,0 0,600 -800,0 0,-600 z" id="path42" inkscape:connector-curvature="0"/>
      </clipPath>
      <clipPath clipPathUnits="userSpaceOnUse" id="997280978374-clipPath1">
        <path d="m -427.169,-99.1168 800,0 0,600 -800,0 0,-600 z" id="path45" inkscape:connector-curvature="0"/>
      </clipPath>
    </defs>
    <g id="g47" style="text-rendering:geometricPrecision">
      <path d="m 185.0982,362.8361 c 0,1.1633 0.9426,2.1059 2.1058,2.1059 1.1633,0 2.1059,-0.9426 2.1059,-2.1059 l 0,-97.3044 c 0,-1.1633 -0.9426,-2.1059 -2.1059,-2.1059 -1.1632,0 -2.1058,0.9426 -2.1058,2.1059 z m 17.5491,-12.2384 c 0,1.1633 0.9426,2.1059 2.1059,2.1059 1.1633,0 2.1059,-0.9426 2.1059,-2.1059 l 0,-72.8269 c 0,-1.1632 -0.9426,-2.1059 -2.1059,-2.1059 -1.1633,0 -2.1059,0.9427 -2.1059,2.1059 z" clip-path="url(#997280978737-clipPath1)" id="path49" inkscape:connector-curvature="0" style="stroke:none"/>
    </g>
    <g id="g51" style="text-rendering:geometricPrecision">
      <path d="m 272.2415,388.3425 c -1.0074,0.5815 -1.3526,1.8691 -0.771,2.8766 0.5815,1.0075 1.8691,1.3526 2.8766,0.7711 l 63.0591,-36.4 c 1.0075,-0.5816 1.3527,-1.8691 0.7711,-2.8766 -0.5816,-1.0075 -1.8692,-1.3526 -2.8766,-0.7711 z m -1.8242,21.316 c -1.0075,0.5816 -1.3527,1.8692 -0.7711,2.8767 0.5816,1.0075 1.8692,1.3526 2.8766,0.771 l 84.2558,-48.6354 c 1.0075,-0.5816 1.3526,-1.8692 0.7711,-2.8766 -0.5816,-1.0075 -1.8692,-1.3526 -2.8767,-0.7711 z" clip-path="url(#997280978737-clipPath1)" id="path53" inkscape:connector-curvature="0" style="stroke:none"/>
    </g>
    <g id="g55" style="text-rendering:geometricPrecision">
      <path d="m 357.8317,362.8471 0.006,-97.2956 c 1e-4,-1.1633 -0.9425,-2.1059 -2.1058,-2.106 -1.1632,-10e-5 -2.1059,0.9425 -2.1059,2.1057 l -0.006,97.2956 c 0,1.1633 0.9425,2.106 2.1058,2.106 1.1633,10e-5 2.1059,-0.9425 2.106,-2.1057 z" clip-path="url(#997280978737-clipPath1)" id="path57" inkscape:connector-curvature="0" style="stroke:none"/>
    </g>
    <g id="g59" style="text-rendering:geometricPrecision">
      <path d="m 335.3052,276.4532 c 1.0074,0.5817 2.2951,0.2367 2.8767,-0.7707 0.5817,-1.0074 0.2368,-2.295 -0.7706,-2.8767 l -63.0704,-36.4173 c -1.0074,-0.5817 -2.2951,-0.2368 -2.8767,0.7706 -0.5817,1.0074 -0.2368,2.2951 0.7706,2.8768 z m 19.3735,-9.0781 c 1.0074,0.5817 2.2951,0.2367 2.8767,-0.7707 0.5817,-1.0074 0.2367,-2.295 -0.7707,-2.8767 l -84.266,-48.6559 c -1.0073,-0.5817 -2.295,-0.2367 -2.8767,0.7707 -0.5817,1.0074 -0.2367,2.295 0.7707,2.8767 z" clip-path="url(#997280978737-clipPath1)" id="path61" inkscape:connector-curvature="0" style="stroke:none"/>
    </g>
    <g id="g63" style="text-rendering:geometricPrecision">
      <path d="m 186.1512,364.6599 84.266,48.6463 c 1.0074,0.5816 2.295,0.2365 2.8766,-0.771 0.5816,-1.0074 0.2365,-2.295 -0.7709,-2.8766 l -84.266,-48.6463 c -1.0074,-0.5816 -2.2951,-0.2365 -2.8767,0.7709 -0.5816,1.0074 -0.2365,2.2951 0.771,2.8767 z" clip-path="url(#997280978737-clipPath1)" id="path65" inkscape:connector-curvature="0" style="stroke:none"/>
    </g>
    <g id="g67" style="text-rendering:geometricPrecision">
      <path d="m 270.413,215.0717 -84.2617,48.6361 c -1.0075,0.5815 -1.3527,1.8691 -0.7711,2.8766 0.5815,1.0075 1.8691,1.3526 2.8766,0.7711 l 84.2617,-48.6361 c 1.0074,-0.5815 1.3526,-1.8691 0.7711,-2.8766 -0.5815,-1.0075 -1.8691,-1.3527 -2.8766,-0.7711 z" clip-path="url(#997280978737-clipPath1)" id="path69" inkscape:connector-curvature="0" style="stroke:none"/>
    </g>
    <g id="g71" style="text-rendering:geometricPrecision">
      <path d="m 78.0636,254.7499 -42.2813,58.1825 c -0.6839,0.9411 -0.4755,2.2577 0.4655,2.9416 0.9411,0.6838 2.2577,0.4755 2.9416,-0.4656 l 42.2813,-58.1826 c 0.6839,-0.941 0.4755,-2.2577 -0.4656,-2.9415 -0.941,-0.6839 -2.2577,-0.4755 -2.9415,0.4656 z" clip-path="url(#997280978737-clipPath1)" id="path73" inkscape:connector-curvature="0" style="stroke:none"/>
      <path d="m 78.0636,254.7499 -42.2813,58.1825 c -0.6839,0.9411 -0.4755,2.2577 0.4655,2.9416 0.9411,0.6838 2.2577,0.4755 2.9416,-0.4656 l 42.2813,-58.1826 c 0.6839,-0.941 0.4755,-2.2577 -0.4656,-2.9415 -0.941,-0.6839 -2.2577,-0.4755 -2.9415,0.4656 z" clip-path="url(#997280978605-clipPath1)" id="path75" inkscape:connector-curvature="0" style="fill:#ff0000;stroke:none"/>
    </g>
    <g id="g77" style="fill:#ff0000;stroke:#ff0000;text-rendering:geometricPrecision">
      <path d="m 187.8549,263.5289 -72.0328,-23.4082 c -1.1064,-0.3595 -2.2941,0.2457 -2.6537,1.352 -0.3595,1.1063 0.2457,2.2941 1.352,2.6536 l 72.0328,23.4082 c 1.1063,0.3595 2.2941,-0.2457 2.6536,-1.352 0.3595,-1.1063 -0.2456,-2.2941 -1.3519,-2.6536 z" clip-path="url(#997280978737-clipPath1)" id="path79" inkscape:connector-curvature="0" style="stroke:none"/>
      <path d="m 187.8549,263.5289 -72.0328,-23.4082 c -1.1064,-0.3595 -2.2941,0.2457 -2.6537,1.352 -0.3595,1.1063 0.2457,2.2941 1.352,2.6536 l 72.0328,23.4082 c 1.1063,0.3595 2.2941,-0.2457 2.6536,-1.352 0.3595,-1.1063 -0.2456,-2.2941 -1.3519,-2.6536 z" clip-path="url(#997280978952-clipPath1)" id="path81" inkscape:connector-curvature="0" style="fill:#000000;stroke:none"/>
    </g>
    <g id="g83" style="fill:#ff0000;stroke:#ff0000;text-rendering:geometricPrecision">
      <path d="m 35.782,315.4081 42.59,58.6283 c 0.6837,0.9412 2.0004,1.1498 2.9415,0.4661 0.9412,-0.6837 1.1498,-2.0003 0.4661,-2.9415 l -42.59,-58.6283 c -0.6837,-0.9411 -2.0003,-1.1497 -2.9415,-0.4661 -0.9411,0.6837 -1.1497,2.0003 -0.4661,2.9415 z" clip-path="url(#997280978737-clipPath1)" id="path85" inkscape:connector-curvature="0" style="stroke:none"/>
      <path d="m 35.782,315.4081 42.59,58.6283 c 0.6837,0.9412 2.0004,1.1498 2.9415,0.4661 0.9412,-0.6837 1.1498,-2.0003 0.4661,-2.9415 l -42.59,-58.6283 c -0.6837,-0.9411 -2.0003,-1.1497 -2.9415,-0.4661 -0.9411,0.6837 -1.1497,2.0003 -0.4661,2.9415 z" clip-path="url(#997280978616-clipPath1)" id="path87" inkscape:connector-curvature="0" style="fill:#000000;stroke:none"/>
    </g>
    <g id="g89" style="fill:#ff0000;stroke:#ff0000;text-rendering:geometricPrecision">
      <path d="m 186.5537,360.8331 -72.0483,23.3935 c -1.1064,0.3592 -1.7119,1.5468 -1.3526,2.6533 0.3592,1.1064 1.5469,1.7118 2.6533,1.3526 l 72.0483,-23.3935 c 1.1064,-0.3592 1.7118,-1.5469 1.3526,-2.6533 -0.3593,-1.1064 -1.5469,-1.7118 -2.6533,-1.3526 z" clip-path="url(#997280978737-clipPath1)" id="path91" inkscape:connector-curvature="0" style="stroke:none"/>
      <path d="m 186.5537,360.8331 -72.0483,23.3935 c -1.1064,0.3592 -1.7119,1.5468 -1.3526,2.6533 0.3592,1.1064 1.5469,1.7118 2.6533,1.3526 l 72.0483,-23.3935 c 1.1064,-0.3592 1.7118,-1.5469 1.3526,-2.6533 -0.3593,-1.1064 -1.5469,-1.7118 -2.6533,-1.3526 z" clip-path="url(#997280978530-clipPath1)" id="path93" inkscape:connector-curvature="0" style="fill:#000000;stroke:none"/>
    </g>
    <g id="g95" style="text-rendering:geometricPrecision">
      <path d="m 356.7846,267.3752 84.2604,-48.642 c 1.0074,-0.5816 1.3525,-1.8692 0.7709,-2.8766 -0.5816,-1.0075 -1.8692,-1.3526 -2.8766,-0.771 l -84.2604,48.642 c -1.0075,0.5815 -1.3526,1.8691 -0.771,2.8766 0.5816,1.0075 1.8692,1.3526 2.8767,0.771 z" clip-path="url(#997280978737-clipPath1)" id="path97" inkscape:connector-curvature="0" style="stroke:none"/>
    </g>
    <g id="g99" style="text-rendering:geometricPrecision">
      <path d="m 438.9391,218.7331 84.2554,48.6507 c 1.0073,0.5817 2.295,0.2367 2.8767,-0.7707 0.5817,-1.0074 0.2367,-2.295 -0.7707,-2.8767 l -84.2553,-48.6507 c -1.0074,-0.5817 -2.2951,-0.2367 -2.8768,0.7707 -0.5817,1.0074 -0.2367,2.295 0.7707,2.8767 z" clip-path="url(#997280978737-clipPath1)" id="path101" inkscape:connector-curvature="0" style="stroke:none"/>
    </g>
    <g id="g103" style="fill:#333399;stroke:#333399;text-rendering:geometricPrecision">
      <path d="m 525.3004,267.3839 66.2834,-38.2642 c 1.0074,-0.5816 1.3525,-1.8692 0.7709,-2.8766 -0.5816,-1.0075 -1.8692,-1.3526 -2.8766,-0.771 l -66.2835,38.2642 c -1.0074,0.5816 -1.3525,1.8692 -0.7709,2.8766 0.5815,1.0075 1.8691,1.3526 2.8767,0.771 z" clip-path="url(#997280978737-clipPath1)" id="path105" inkscape:connector-curvature="0" style="stroke:none"/>
      <path d="m 525.3004,267.3839 66.2834,-38.2642 c 1.0074,-0.5816 1.3525,-1.8692 0.7709,-2.8766 -0.5816,-1.0075 -1.8692,-1.3526 -2.8766,-0.771 l -66.2835,38.2642 c -1.0074,0.5816 -1.3525,1.8692 -0.7709,2.8766 0.5815,1.0075 1.8691,1.3526 2.8767,0.771 z" clip-path="url(#997280978743-clipPath1)" id="path107" inkscape:connector-curvature="0" style="fill:#000000;stroke:none"/>
    </g>
    <g id="g109" style="fill:#ff0000;stroke:#ff0000;text-rendering:geometricPrecision">
      <path d="m 429.1114,221.9749 c 0,1.1632 0.9425,2.1059 2.1058,2.1059 1.1633,1e-4 2.1059,-0.9424 2.106,-2.1057 l 0.004,-77.0308 c 10e-5,-1.1633 -0.9424,-2.106 -2.1057,-2.106 -1.1633,-1e-4 -2.106,0.9425 -2.106,2.1057 z m 17.5492,9e-4 c -10e-5,1.1632 0.9425,2.1059 2.1057,2.106 1.1633,0 2.106,-0.9425 2.106,-2.1058 l 0.004,-77.0308 c 10e-5,-1.1633 -0.9425,-2.106 -2.1058,-2.106 -1.1632,-1e-4 -2.1059,0.9425 -2.1059,2.1058 z" clip-path="url(#997280978737-clipPath1)" id="path111" inkscape:connector-curvature="0" style="stroke:none"/>
      <path d="m 429.1114,221.9749 c 0,1.1632 0.9425,2.1059 2.1058,2.1059 1.1633,1e-4 2.1059,-0.9424 2.106,-2.1057 l 0.004,-77.0308 c 10e-5,-1.1633 -0.9424,-2.106 -2.1057,-2.106 -1.1633,-1e-4 -2.106,0.9425 -2.106,2.1057 z m 17.5492,9e-4 c -10e-5,1.1632 0.9425,2.1059 2.1057,2.106 1.1633,0 2.106,-0.9425 2.106,-2.1058 l 0.004,-77.0308 c 10e-5,-1.1633 -0.9425,-2.106 -2.1058,-2.106 -1.1632,-1e-4 -2.1059,0.9425 -2.1059,2.1058 z" clip-path="url(#99728097844-clipPath1)" id="path113" inkscape:connector-curvature="0" style="fill:#000000;stroke:none"/>
    </g>
    <g id="g115" style="text-rendering:geometricPrecision">
      <path d="m 522.1416,265.56 -0.005,97.2926 c -1e-4,1.1633 0.9424,2.1059 2.1057,2.106 1.1633,0 2.106,-0.9425 2.106,-2.1058 l 0.005,-97.2926 c 10e-5,-1.1633 -0.9425,-2.1059 -2.1058,-2.106 -1.1632,0 -2.1059,0.9425 -2.106,2.1058 z" clip-path="url(#997280978737-clipPath1)" id="path117" inkscape:connector-curvature="0" style="stroke:none"/>
    </g>
    <g id="g119" style="text-rendering:geometricPrecision">
      <path d="m 523.1894,364.6764 84.2554,48.6507 c 1.0073,0.5817 2.295,0.2367 2.8767,-0.7707 0.5817,-1.0074 0.2367,-2.295 -0.7707,-2.8767 L 525.2955,361.029 c -1.0074,-0.5817 -2.2951,-0.2367 -2.8767,0.7707 -0.5818,1.0074 -0.2368,2.295 0.7706,2.8767 z" clip-path="url(#997280978737-clipPath1)" id="path121" inkscape:connector-curvature="0" style="stroke:none"/>
    </g>
    <g id="g123" style="text-rendering:geometricPrecision">
      <path d="m 606.3919,411.5033 -0.005,88.8691 c 0,1.1633 0.9425,2.1059 2.1058,2.106 1.1633,0 2.1059,-0.9425 2.106,-2.1058 l 0.005,-88.8691 c 10e-5,-1.1633 -0.9425,-2.1059 -2.1058,-2.106 -1.1632,0 -2.1059,0.9425 -2.106,2.1058 z" clip-path="url(#997280978737-clipPath1)" id="path125" inkscape:connector-curvature="0" style="stroke:none"/>
    </g>
    <g id="g127" style="text-rendering:geometricPrecision">
      <path d="m 698.9597,257.8912 65.1015,-72.2972 c 0.7784,-0.8644 0.7087,-2.1957 -0.1557,-2.9741 -0.8645,-0.7784 -2.1957,-0.7087 -2.9742,0.1558 l -65.1015,72.2972 c -0.7784,0.8645 -0.7087,2.1957 0.1557,2.9741 0.8645,0.7784 2.1957,0.7087 2.9742,-0.1558 z" clip-path="url(#997280978737-clipPath1)" id="path129" inkscape:connector-curvature="0" style="stroke:none"/>
    </g>
    <g id="g131" style="text-rendering:geometricPrecision">
      <path d="M 764.32,183.1319 715.6737,98.874 c -0.5817,-1.0074 -1.8693,-1.3524 -2.8767,-0.7708 -1.0074,0.5816 -1.3524,1.8693 -0.7708,2.8767 l 48.6463,84.2579 c 0.5817,1.0074 1.8693,1.3524 2.8767,0.7708 1.0074,-0.5817 1.3525,-1.8693 0.7708,-2.8767 z" clip-path="url(#997280978737-clipPath1)" id="path133" inkscape:connector-curvature="0" style="stroke:none"/>
    </g>
    <g id="g135" style="text-rendering:geometricPrecision">
      <path d="m 713.412,97.8671 -95.162,20.231 c -1.1378,0.2419 -1.8638,1.3599 -1.6219,2.4977 0.2419,1.1379 1.3599,1.8639 2.4978,1.622 l 95.1619,-20.231 c 1.1379,-0.2419 1.8639,-1.3599 1.622,-2.4978 -0.2419,-1.1378 -1.3599,-1.8638 -2.4978,-1.6219 z" clip-path="url(#997280978737-clipPath1)" id="path137" inkscape:connector-curvature="0" style="stroke:none"/>
    </g>
    <g id="g139" style="text-rendering:geometricPrecision">
      <path d="m 625.8676,226.9501 70.6708,31.4559 c 1.0627,0.473 2.3072,-0.005 2.7802,-1.0676 0.473,-1.0627 -0.005,-2.3072 -1.0676,-2.7802 l -70.6707,-31.4559 c -1.0628,-0.4731 -2.3072,0.005 -2.7803,1.0675 -0.473,1.0628 0.005,2.3073 1.0676,2.7803 z" clip-path="url(#997280978737-clipPath1)" id="path141" inkscape:connector-curvature="0" style="stroke:none"/>
      <path d="m 625.8676,226.9501 70.6708,31.4559 c 1.0627,0.473 2.3072,-0.005 2.7802,-1.0676 0.473,-1.0627 -0.005,-2.3072 -1.0676,-2.7802 l -70.6707,-31.4559 c -1.0628,-0.4731 -2.3072,0.005 -2.7803,1.0675 -0.473,1.0628 0.005,2.3073 1.0676,2.7803 z" clip-path="url(#99728097877-clipPath1)" id="path143" inkscape:connector-curvature="0" style="fill:#333399;stroke:none"/>
    </g>
    <g id="g145" style="text-rendering:geometricPrecision">
      <path d="m 613.147,192.9507 7.6352,-72.5724 c 0.1217,-1.1569 -0.7171,-2.193 -1.8739,-2.3147 -1.157,-0.1217 -2.193,0.7171 -2.3147,1.874 l -7.6352,72.5724 c -0.1218,1.1569 0.717,2.1929 1.8739,2.3146 1.1569,0.1218 2.193,-0.7171 2.3147,-1.8739 z" clip-path="url(#997280978737-clipPath1)" id="path147" inkscape:connector-curvature="0" style="stroke:none"/>
      <path d="m 613.147,192.9507 7.6352,-72.5724 c 0.1217,-1.1569 -0.7171,-2.193 -1.8739,-2.3147 -1.157,-0.1217 -2.193,0.7171 -2.3147,1.874 l -7.6352,72.5724 c -0.1218,1.1569 0.717,2.1929 1.8739,2.3146 1.1569,0.1218 2.193,-0.7171 2.3147,-1.8739 z" clip-path="url(#997280978173-clipPath1)" id="path149" inkscape:connector-curvature="0" style="fill:#333399;stroke:none"/>
    </g>
    <g id="g151" style="fill:#ffffff;stroke:#ffffff;text-rendering:geometricPrecision">
      <path d="m 91.1489,219.1857 c -4.5817,0 -8.2959,3.7142 -8.2959,8.2959 l 0,16.5917 c 0,4.5818 3.7142,8.2959 8.2959,8.2959 l 7.0645,0 c 4.5817,0 8.2959,-3.7141 8.2959,-8.2959 l 0,-16.5917 c 0,-4.5817 -3.7142,-8.2959 -8.2959,-8.2959 z" clip-path="url(#997280978737-clipPath1)" id="path153" inkscape:connector-curvature="0" style="stroke:none"/>
    </g>
    <g font-size="34px" transform="translate(81.853,214.965)" id="g155" style="font-size:34px;font-family:sans-serif;fill:#ff0000;stroke:#ff0000;text-rendering:geometricPrecision">
      <text x="0" xml:space="preserve" y="33" clip-path="url(#99728097896-clipPath1)" id="text157" style="stroke:none">O</text>
    </g>
    <g font-size="34px" id="g159" style="font-size:34px;font-family:sans-serif;fill:#ffffff;stroke:#ffffff;text-rendering:geometricPrecision">
      <path d="m 91.1333,376.6032 c -4.5817,0 -8.2959,3.7142 -8.2959,8.2959 l 0,16.5918 c 0,4.5817 3.7142,8.2959 8.2959,8.2959 l 7.0644,0 c 4.5817,0 8.2959,-3.7142 8.2959,-8.2959 l 0,-16.5918 c 0,-4.5817 -3.7142,-8.2959 -8.2959,-8.2959 z" clip-path="url(#997280978737-clipPath1)" id="path161" inkscape:connector-curvature="0" style="stroke:none"/>
      <text x="0" y="33" transform="translate(81.8374,372.3825)" clip-path="url(#997280978460-clipPath1)" xml:space="preserve" id="text163" style="fill:#ff0000;stroke:none">O</text>
    </g>
    <g font-size="34px" id="g165" style="font-size:34px;font-family:sans-serif;fill:#ffffff;stroke:#ffffff;text-rendering:geometricPrecision">
      <path d="m 606.7491,201.1076 c -4.366,0 -7.9053,3.5393 -7.9053,7.9053 l 0,15.8105 c 0,4.366 3.5393,7.9053 7.9053,7.9053 l 3.5176,0 c 4.3659,0 7.9052,-3.5393 7.9052,-7.9053 l 0,-15.8105 c 0,-4.366 -3.5393,-7.9053 -7.9052,-7.9053 z" clip-path="url(#997280978737-clipPath1)" id="path167" inkscape:connector-curvature="0" style="stroke:none"/>
      <text x="0" y="33" transform="translate(595.8438,196.4181)" clip-path="url(#997280978487-clipPath1)" xml:space="preserve" id="text169" style="fill:#333399;stroke:none">N</text>
    </g>
    <g font-size="34px" id="g171" style="font-size:34px;font-family:sans-serif;fill:#ffffff;stroke:#ffffff;text-rendering:geometricPrecision">
      <path d="m 436.4649,103.3375 c -4.5817,0 -8.2959,3.7142 -8.2959,8.2959 l 0,16.5918 c 0,4.5817 3.7142,8.2959 8.2959,8.2959 l 7.0645,0 c 4.5817,0 8.2959,-3.7142 8.2959,-8.2959 l 0,-16.5918 c 0,-4.5817 -3.7142,-8.2959 -8.2959,-8.2959 z" clip-path="url(#997280978737-clipPath1)" id="path173" inkscape:connector-curvature="0" style="stroke:none"/>
      <text x="0" y="33" transform="translate(427.169,99.1168)" clip-path="url(#997280978374-clipPath1)" xml:space="preserve" id="text175" style="fill:#ff0000;stroke:none">O</text>
    </g>
  </g>
</svg>