<?xml version="1.0" encoding="UTF-8" standalone="no"?>
<svg color-interpolation="auto" color-rendering="auto" fill="#000000" fill-opacity="1" font-family="Dialog" font-size="12px" font-style="normal" font-weight="normal" height="440.767" image-rendering="auto" shape-rendering="auto" stroke="#000000" stroke-dasharray="none" stroke-dashoffset="0" stroke-linecap="square" stroke-linejoin="miter" stroke-miterlimit="10" stroke-opacity="1" stroke-width="1" text-rendering="auto" width="748.41302" version="1.1" id="svg44" xmlns="http://www.w3.org/2000/svg" xmlns:svg="http://www.w3.org/2000/svg">
  <!--Generated by Marvin with Batik SVG Generator-->
  <defs id="genericDefs"/>
  <g id="g44" transform="translate(-25.771999,-53.773998)">
    <defs id="1209043336288-defs1">
      <clipPath clipPathUnits="userSpaceOnUse" id="1209043336937-clipPath1">
        <path d="M 0,0 H 800 V 600 H 0 Z" id="path1"/>
      </clipPath>
      <clipPath clipPathUnits="userSpaceOnUse" id="1209043336866-clipPath1">
        <path d="m 184.7556,346.8497 c -19.7481,0 -35.7571,16.0089 -35.7571,35.7571 0,19.748 16.009,35.757 35.7571,35.757 19.7481,0 35.757,-16.009 35.757,-35.757 0,-19.7482 -16.0089,-35.7571 -35.757,-35.7571 z" id="path2"/>
      </clipPath>
      <clipPath clipPathUnits="userSpaceOnUse" id="1209043336790-clipPath1">
        <path d="m 249.6879,433.2266 c -20.2683,0 -36.6991,16.4308 -36.6991,36.6991 0,20.2684 16.4308,36.6991 36.6991,36.6991 20.2684,0 36.6992,-16.4307 36.6992,-36.6991 0,-20.2683 -16.4308,-36.6991 -36.6992,-36.6991 z" id="path3"/>
      </clipPath>
      <clipPath clipPathUnits="userSpaceOnUse" id="1209043336548-clipPath1">
        <path d="m 143.8588,153.6275 c -20.0911,0 -36.3781,16.287 -36.3781,36.3781 0,20.0911 16.287,36.3781 36.3781,36.3781 20.091,0 36.3781,-16.287 36.3781,-36.3781 0,-20.0911 -16.2871,-36.3781 -36.3781,-36.3781 z" id="path4"/>
      </clipPath>
      <clipPath clipPathUnits="userSpaceOnUse" id="1209043336993-clipPath1">
        <path d="m 102.845,52.8778 c -18.8576,0 -34.1446,15.2871 -34.1446,34.1447 0,18.8575 15.287,34.1446 34.1446,34.1446 18.8576,0 34.1447,-15.2871 34.1447,-34.1446 0,-18.8576 -15.2871,-34.1447 -34.1447,-34.1447 z" id="path5"/>
      </clipPath>
      <clipPath clipPathUnits="userSpaceOnUse" id="1209043336361-clipPath1">
        <path d="m 684.1822,327.1901 c -21.4181,0 -38.7809,17.3628 -38.7809,38.7809 0,21.4181 17.3628,38.7809 38.7809,38.7809 21.4181,0 38.7809,-17.3628 38.7809,-38.7809 0,-21.4181 -17.3628,-38.7809 -38.7809,-38.7809 z" id="path6"/>
      </clipPath>
      <clipPath clipPathUnits="userSpaceOnUse" id="1209043336973-clipPath1">
        <path d="m 580.8475,288.4092 c -21.4181,0 -38.7808,17.3628 -38.7808,38.7809 0,21.4181 17.3627,38.7809 38.7808,38.7809 21.4182,0 38.781,-17.3628 38.781,-38.7809 0,-21.4181 -17.3628,-38.7809 -38.781,-38.7809 z" id="path7"/>
      </clipPath>
      <clipPath clipPathUnits="userSpaceOnUse" id="1209043336672-clipPath1">
        <path d="m 684.1822,329.1633 c -20.3284,0 -36.8077,16.4794 -36.8077,36.8077 0,20.3284 16.4793,36.8077 36.8077,36.8077 20.3284,0 36.8077,-16.4793 36.8077,-36.8077 0,-20.3283 -16.4793,-36.8077 -36.8077,-36.8077 z" id="path8"/>
      </clipPath>
      <clipPath clipPathUnits="userSpaceOnUse" id="1209043336829-clipPath1">
        <path d="m -585.7734,-260.5929 h 800 v 600 h -800 z" id="path9"/>
      </clipPath>
      <clipPath clipPathUnits="userSpaceOnUse" id="1209043336816-clipPath1">
        <path d="m -585.7734,-295.7504 h 800 v 600 h -800 z" id="path10"/>
      </clipPath>
      <clipPath clipPathUnits="userSpaceOnUse" id="1209043336502-clipPath1">
        <path d="m -192.1765,-451.5414 h 800 v 600 h -800 z" id="path11"/>
      </clipPath>
      <clipPath clipPathUnits="userSpaceOnUse" id="1209043336689-clipPath1">
        <path d="m -109.6091,-72.7109 h 800 v 600 h -800 z" id="path12"/>
      </clipPath>
      <clipPath clipPathUnits="userSpaceOnUse" id="1209043336453-clipPath1">
        <path d="m -670.3775,-443.4122 h 800 v 600 h -800 z" id="path13"/>
      </clipPath>
    </defs>
    <g text-rendering="geometricPrecision" id="g14">
      <path clip-path="url(#1209043336937-clipPath1)" d="m 512.6117,367.8163 v 0 l -85.2526,-49.2206 c -1.0191,-0.5884 -1.3683,-1.8915 -0.7799,-2.9106 0.5884,-1.0191 1.8916,-1.3683 2.9107,-0.7799 v 0 l 85.2525,49.2205 c 1.0191,0.5884 1.3683,1.8916 0.7799,2.9107 -0.5883,1.0191 -1.8915,1.3683 -2.9106,0.7799 z" stroke="none" id="path14"/>
    </g>
    <g text-rendering="geometricPrecision" id="g15">
      <path clip-path="url(#1209043336937-clipPath1)" d="m 429.4899,318.5957 v 0 l -85.2526,49.2206 c -1.0191,0.5884 -2.3222,0.2392 -2.9106,-0.7799 -0.5884,-1.0191 -0.2392,-2.3223 0.7799,-2.9107 v 0 l 85.2525,-49.2205 c 1.0192,-0.5884 2.3223,-0.2392 2.9107,0.7799 0.5884,1.0191 0.2392,2.3222 -0.7799,2.9106 z" stroke="none" id="path15"/>
    </g>
    <g text-rendering="geometricPrecision" id="g16">
      <path clip-path="url(#1209043336937-clipPath1)" d="m 342.1066,367.8163 v 0 L 256.854,318.5957 c -1.0191,-0.5884 -1.3683,-1.8915 -0.7799,-2.9106 0.5884,-1.0191 1.8915,-1.3683 2.9107,-0.7799 v 0 l 85.2525,49.2205 c 1.0191,0.5884 1.3683,1.8916 0.7799,2.9107 -0.5884,1.0191 -1.8915,1.3683 -2.9106,0.7799 z" stroke="none" id="path16"/>
    </g>
    <g text-rendering="geometricPrecision" id="g17">
      <path clip-path="url(#1209043336937-clipPath1)" d="m 345.256,366.4145 c 0.2449,-1.151 -0.4896,-2.2827 -1.6406,-2.5276 -1.151,-0.2449 -2.2826,0.4897 -2.5275,1.6407 l -20.4874,96.2873 c -0.2449,1.1511 0.4896,2.2827 1.6407,2.5276 1.151,0.2449 2.2826,-0.4897 2.5275,-1.6407 z m -20.4964,11.0097 c 0.2449,-1.151 -0.4896,-2.2826 -1.6406,-2.5275 -1.151,-0.2449 -2.2826,0.4896 -2.5275,1.6406 l -14.2307,66.8818 c -0.2449,1.151 0.4897,2.2827 1.6407,2.5276 1.151,0.2449 2.2826,-0.4897 2.5275,-1.6407 z" stroke="none" id="path17"/>
    </g>
    <g text-rendering="geometricPrecision" id="g18">
      <path clip-path="url(#1209043336937-clipPath1)" d="m 259.3449,318.3341 c 0.8746,-0.7873 0.9454,-2.1345 0.1582,-3.0092 -0.7873,-0.8746 -2.1346,-0.9454 -3.0092,-0.1582 l -73.1638,65.8564 c -0.8747,0.7872 -0.9455,2.1345 -0.1582,3.0091 0.7873,0.8747 2.1345,0.9455 3.0092,0.1582 z m -21.0822,-4.9136 c 0.8746,-0.7873 0.9454,-2.1345 0.1582,-3.0092 -0.7873,-0.8746 -2.1346,-0.9454 -3.0092,-0.1582 l -54.7573,49.2883 c -0.8746,0.7872 -0.9455,2.1345 -0.1582,3.0091 0.7873,0.8747 2.1345,0.9455 3.0092,0.1582 z" stroke="none" id="path18"/>
    </g>
    <g text-rendering="geometricPrecision" id="g19">
      <path clip-path="url(#1209043336937-clipPath1)" d="m 219.5428,235.5293 c 1.1191,0.3639 2.3213,-0.2483 2.6852,-1.3674 0.3639,-1.1191 -0.2482,-2.3213 -1.3673,-2.6852 l -70.0584,-22.7822 c -1.1191,-0.3639 -2.3213,0.2483 -2.6852,1.3674 -0.3639,1.1191 0.2483,2.3213 1.3674,2.6852 z m 17.2658,-13.057 c 1.1191,0.3639 2.3213,-0.2483 2.6853,-1.3674 0.3639,-1.1191 -0.2483,-2.3213 -1.3674,-2.6852 l -93.6088,-30.4404 c -1.1191,-0.3639 -2.3213,0.2483 -2.6852,1.3674 -0.3639,1.1191 0.2483,2.3213 1.3674,2.6852 z" stroke="none" id="path19"/>
    </g>
    <g text-rendering="geometricPrecision" id="g20">
      <path clip-path="url(#1209043336937-clipPath1)" d="m 145.2842,191.5894 v 0 l -73.1726,65.8561 c -0.8747,0.7872 -2.2219,0.7163 -3.0091,-0.1584 -0.7873,-0.8747 -0.7164,-2.2219 0.1583,-3.0091 v 0 l 73.1726,-65.8562 c 0.8747,-0.7872 2.2219,-0.7163 3.0091,0.1584 0.7873,0.8747 0.7164,2.2219 -0.1583,3.0092 z" stroke="none" id="path20"/>
    </g>
    <g text-rendering="geometricPrecision" id="g21">
      <path clip-path="url(#1209043336937-clipPath1)" d="m 92.7116,263.8434 c -0.2444,-1.1512 -1.3757,-1.8862 -2.5269,-1.6417 -1.1511,0.2444 -1.8861,1.3757 -1.6416,2.5268 l 15.3062,72.081 c 0.2445,1.1511 1.3758,1.8861 2.5269,1.6417 1.1511,-0.2445 1.8861,-1.3758 1.6417,-2.5269 z m -19.9411,-8.4243 c -0.2444,-1.1511 -1.3758,-1.8861 -2.5269,-1.6416 -1.1511,0.2444 -1.8861,1.3757 -1.6416,2.5268 l 20.4503,96.3058 c 0.2445,1.1511 1.3758,1.8861 2.5269,1.6416 1.1511,-0.2444 1.8861,-1.3757 1.6416,-2.5268 z" stroke="none" id="path21"/>
    </g>
    <g text-rendering="geometricPrecision" id="g22">
      <path clip-path="url(#1209043336937-clipPath1)" d="m 255.8351,317.1931 v 0 l -20.4518,-96.3045 c -0.2445,-1.1511 0.4905,-2.2824 1.6416,-2.5269 1.1511,-0.2444 2.2825,0.4906 2.5269,1.6417 v 0 l 20.4519,96.3044 c 0.2444,1.1511 -0.4906,2.2824 -1.6417,2.5269 -1.1511,0.2444 -2.2824,-0.4906 -2.5269,-1.6416 z" stroke="none" id="path22"/>
    </g>
    <g text-rendering="geometricPrecision" id="g23">
      <path clip-path="url(#1209043336937-clipPath1)" d="m 91.7954,350.1412 v 0 l 93.619,30.4392 c 1.1191,0.3639 1.7314,1.5661 1.3675,2.6852 -0.3639,1.1191 -1.5661,1.7313 -2.6852,1.3675 v 0 l -93.619,-30.4393 c -1.1191,-0.3638 -1.7313,-1.5661 -1.3674,-2.6852 0.3638,-1.1191 1.566,-1.7313 2.6851,-1.3674 z" stroke="none" id="path23"/>
    </g>
    <g fill="#333399" stroke="#333399" text-rendering="geometricPrecision" id="g25">
      <path clip-path="url(#1209043336937-clipPath1)" d="m 186.7022,381.7403 v 0 l 29.0807,65.3344 c 0.4785,1.0751 -0.005,2.3346 -1.0802,2.8131 -1.0751,0.4785 -2.3346,-0.005 -2.8131,-1.0802 v 0 l -29.0807,-65.3344 c -0.4785,-1.0751 0.005,-2.3346 1.0802,-2.8131 1.0751,-0.4785 2.3345,0.005 2.8131,1.0802 z" stroke="none" id="path24"/>
      <path clip-path="url(#1209043336866-clipPath1)" d="m 186.7022,381.7403 v 0 l 29.0807,65.3344 c 0.4785,1.0751 -0.005,2.3346 -1.0802,2.8131 -1.0751,0.4785 -2.3346,-0.005 -2.8131,-1.0802 v 0 l -29.0807,-65.3344 c -0.4785,-1.0751 0.005,-2.3346 1.0802,-2.8131 1.0751,-0.4785 2.3345,0.005 2.8131,1.0802 z" fill="#000000" stroke="none" id="path25"/>
    </g>
    <g text-rendering="geometricPrecision" id="g27">
      <path clip-path="url(#1209043336937-clipPath1)" d="m 249.4653,467.8066 v 0 l 72.9967,-7.6673 c 1.1704,-0.1229 2.2188,0.7262 2.3417,1.8965 0.1229,1.1703 -0.7262,2.2187 -1.8965,2.3417 v 0 l -72.9967,7.6673 c -1.1703,0.123 -2.2187,-0.7261 -2.3417,-1.8965 -0.1229,-1.1703 0.7262,-2.2187 1.8965,-2.3417 z" stroke="none" id="path26"/>
      <path clip-path="url(#1209043336790-clipPath1)" d="m 249.4653,467.8066 v 0 l 72.9967,-7.6673 c 1.1704,-0.1229 2.2188,0.7262 2.3417,1.8965 0.1229,1.1703 -0.7262,2.2187 -1.8965,2.3417 v 0 l -72.9967,7.6673 c -1.1703,0.123 -2.2187,-0.7261 -2.3417,-1.8965 -0.1229,-1.1703 0.7262,-2.2187 1.8965,-2.3417 z" fill="#333399" stroke="none" id="path27"/>
    </g>
    <g fill="#ff0000" stroke="#ff0000" text-rendering="geometricPrecision" id="g29">
      <path clip-path="url(#1209043336937-clipPath1)" d="m 141.7745,190.4481 v 0 L 126.664,119.2784 c -0.2444,-1.1512 0.4906,-2.2824 1.6417,-2.5269 1.1511,-0.2444 2.2824,0.4907 2.5268,1.6418 v 0 l 15.1106,71.1698 c 0.2444,1.1511 -0.4907,2.2824 -1.6418,2.5268 -1.1511,0.2444 -2.2824,-0.4907 -2.5268,-1.6418 z" stroke="none" id="path28"/>
      <path clip-path="url(#1209043336548-clipPath1)" d="m 141.7745,190.4481 v 0 L 126.664,119.2784 c -0.2444,-1.1512 0.4906,-2.2824 1.6417,-2.5269 1.1511,-0.2444 2.2824,0.4907 2.5268,1.6418 v 0 l 15.1106,71.1698 c 0.2444,1.1511 -0.4907,2.2824 -1.6418,2.5268 -1.1511,0.2444 -2.2824,-0.4907 -2.5268,-1.6418 z" fill="#000000" stroke="none" id="path29"/>
    </g>
    <g text-rendering="geometricPrecision" id="g31">
      <path clip-path="url(#1209043336937-clipPath1)" d="m 102.1861,89.0488 v 0 L 37.244,67.9313 c -1.1191,-0.3639 -1.7313,-1.5661 -1.3674,-2.6852 0.3639,-1.1191 1.5661,-1.7313 2.6852,-1.3674 v 0 l 64.9421,21.1175 c 1.1191,0.3639 1.7313,1.5661 1.3674,2.6852 -0.3639,1.1191 -1.5661,1.7313 -2.6852,1.3674 z" stroke="none" id="path30"/>
      <path clip-path="url(#1209043336993-clipPath1)" d="m 102.1861,89.0488 v 0 L 37.244,67.9313 c -1.1191,-0.3639 -1.7313,-1.5661 -1.3674,-2.6852 0.3639,-1.1191 1.5661,-1.7313 2.6852,-1.3674 v 0 l 64.9421,21.1175 c 1.1191,0.3639 1.7313,1.5661 1.3674,2.6852 -0.3639,1.1191 -1.5661,1.7313 -2.6852,1.3674 z" fill="#ff0000" stroke="none" id="path31"/>
    </g>
    <g fill="#333399" stroke="#333399" text-rendering="geometricPrecision" id="g33">
      <path clip-path="url(#1209043336937-clipPath1)" d="m 683.1168,367.8163 v 0 l -67.1704,-38.7809 c -1.0192,-0.5884 -1.3683,-1.8915 -0.78,-2.9106 0.5884,-1.0192 1.8916,-1.3684 2.9107,-0.78 v 0 l 67.1705,38.7809 c 1.0191,0.5884 1.3682,1.8916 0.7799,2.9107 -0.5884,1.0191 -1.8916,1.3683 -2.9107,0.7799 z" stroke="none" id="path32"/>
      <path clip-path="url(#1209043336361-clipPath1)" d="m 683.1168,367.8163 v 0 l -67.1704,-38.7809 c -1.0192,-0.5884 -1.3683,-1.8915 -0.78,-2.9106 0.5884,-1.0192 1.8916,-1.3684 2.9107,-0.78 v 0 l 67.1705,38.7809 c 1.0191,0.5884 1.3682,1.8916 0.7799,2.9107 -0.5884,1.0191 -1.8916,1.3683 -2.9107,0.7799 z" fill="#000000" stroke="none" id="path33"/>
    </g>
    <g text-rendering="geometricPrecision" id="g35">
      <path clip-path="url(#1209043336937-clipPath1)" d="m 581.9129,329.0354 v 0 l -67.1705,38.7809 c -1.0191,0.5884 -2.3222,0.2392 -2.9106,-0.7799 -0.5884,-1.0191 -0.2392,-2.3223 0.7799,-2.9107 v 0 l 67.1705,-38.7809 c 1.0191,-0.5884 2.3222,-0.2392 2.9106,0.78 0.5884,1.0191 0.2393,2.3222 -0.7799,2.9106 z" stroke="none" id="path34"/>
      <path clip-path="url(#1209043336973-clipPath1)" d="m 581.9129,329.0354 v 0 l -67.1705,38.7809 c -1.0191,0.5884 -2.3222,0.2392 -2.9106,-0.7799 -0.5884,-1.0191 -0.2392,-2.3223 0.7799,-2.9107 v 0 l 67.1705,-38.7809 c 1.0191,-0.5884 2.3222,-0.2392 2.9106,0.78 0.5884,1.0191 0.2393,2.3222 -0.7799,2.9106 z" fill="#333399" stroke="none" id="path35"/>
    </g>
    <g fill="#ff0000" stroke="#ff0000" text-rendering="geometricPrecision" id="g37">
      <path clip-path="url(#1209043336937-clipPath1)" d="m 695.1911,360.8452 c 0,-1.1768 -0.954,-2.1307 -2.1307,-2.1307 -1.1768,0 -2.1308,0.9539 -2.1308,2.1307 v 78.7413 c 0,1.1768 0.954,2.1307 2.1308,2.1307 1.1767,0 2.1307,-0.9539 2.1307,-2.1307 z m -17.7563,0 c 0,-1.1768 -0.954,-2.1307 -2.1308,-2.1307 -1.1767,0 -2.1307,0.9539 -2.1307,2.1307 v 78.7413 c 0,1.1768 0.954,2.1307 2.1307,2.1307 1.1768,0 2.1308,-0.9539 2.1308,-2.1307 z" stroke="none" id="path36"/>
      <path clip-path="url(#1209043336672-clipPath1)" d="m 695.1911,360.8452 c 0,-1.1768 -0.954,-2.1307 -2.1307,-2.1307 -1.1768,0 -2.1308,0.9539 -2.1308,2.1307 v 78.7413 c 0,1.1768 0.954,2.1307 2.1308,2.1307 1.1767,0 2.1307,-0.9539 2.1307,-2.1307 z m -17.7563,0 c 0,-1.1768 -0.954,-2.1307 -2.1308,-2.1307 -1.1767,0 -2.1307,0.9539 -2.1307,2.1307 v 78.7413 c 0,1.1768 0.954,2.1307 2.1307,2.1307 1.1768,0 2.1308,-0.9539 2.1308,-2.1307 z" fill="#000000" stroke="none" id="path37"/>
    </g>
    <g text-rendering="geometricPrecision" id="g38">
      <path clip-path="url(#1209043336937-clipPath1)" d="m 763.119,322.8572 v 0 l -77.8714,44.9591 c -1.0191,0.5884 -2.3223,0.2392 -2.9107,-0.7799 -0.5884,-1.0191 -0.2392,-2.3223 0.7799,-2.9107 v 0 l 77.8715,-44.9591 c 1.0191,-0.5884 2.3222,-0.2392 2.9106,0.7799 0.5884,1.0192 0.2392,2.3223 -0.7799,2.9107 z" stroke="none" id="path38"/>
    </g>
    <g fill="#333399" font-family="sans-serif" font-size="35px" stroke="#333399" text-rendering="geometricPrecision" transform="translate(585.7734,260.5929)" id="g39">
      <text clip-path="url(#1209043336829-clipPath1)" stroke="none" x="0" xml:space="preserve" y="33" id="text38">H</text>
    </g>
    <g fill="#333399" font-family="sans-serif" font-size="35px" stroke="#333399" text-rendering="geometricPrecision" transform="translate(585.7734,295.7504)" id="g40">
      <text clip-path="url(#1209043336816-clipPath1)" stroke="none" x="0" xml:space="preserve" y="33" id="text39">N</text>
    </g>
    <g fill="#333399" font-family="sans-serif" font-size="35px" stroke="#333399" text-rendering="geometricPrecision" transform="translate(192.1765,451.5414)" id="g41">
      <text clip-path="url(#1209043336502-clipPath1)" stroke="none" x="0" xml:space="preserve" y="33" id="text40">HN</text>
    </g>
    <g fill="#ff0000" font-family="sans-serif" font-size="35px" stroke="#ff0000" text-rendering="geometricPrecision" transform="translate(109.6091,72.7109)" id="g42">
      <text clip-path="url(#1209043336689-clipPath1)" stroke="none" x="0" xml:space="preserve" y="33" id="text41">O</text>
    </g>
    <g fill="#ff0000" font-family="sans-serif" font-size="35px" stroke="#ff0000" text-rendering="geometricPrecision" transform="translate(670.3775,443.4122)" id="g43">
      <text clip-path="url(#1209043336453-clipPath1)" stroke="none" x="0" xml:space="preserve" y="33" id="text42">O</text>
    </g>
  </g>
</svg>