<?xml version="1.0" encoding="UTF-8" standalone="no"?>
<svg xmlns:dc="http://purl.org/dc/elements/1.1/" xmlns:cc="http://creativecommons.org/ns#" xmlns:rdf="http://www.w3.org/1999/02/22-rdf-syntax-ns#" xmlns:svg="http://www.w3.org/2000/svg" xmlns="http://www.w3.org/2000/svg" xmlns:sodipodi="http://sodipodi.sourceforge.net/DTD/sodipodi-0.dtd" xmlns:inkscape="http://www.inkscape.org/namespaces/inkscape" width="716.39014" stroke-miterlimit="10" font-weight="normal" height="332.1214" font-style="normal" font-size="12px" id="svg2" version="1.1" inkscape:version="0.91 r13725" sodipodi:docname="Phenethylamine.svg" style="font-style:normal;font-weight:normal;font-size:12px;font-family:Dialog;color-interpolation:auto;fill:#000000;fill-opacity:1;stroke:#000000;stroke-width:1;stroke-linecap:square;stroke-linejoin:miter;stroke-miterlimit:10;stroke-dasharray:none;stroke-dashoffset:0;stroke-opacity:1;color-rendering:auto;image-rendering:auto;shape-rendering:auto;text-rendering:auto">
  <metadata id="metadata72">
    <rdf:RDF>
      <cc:Work rdf:about="">
        <dc:format>image/svg+xml</dc:format>
        <dc:type rdf:resource="http://purl.org/dc/dcmitype/StillImage"/>
        <dc:title/>
      </cc:Work>
    </rdf:RDF>
  </metadata>
  <sodipodi:namedview pagecolor="#ffffff" bordercolor="#666666" borderopacity="1" objecttolerance="10" gridtolerance="10" guidetolerance="10" inkscape:pageopacity="0" inkscape:pageshadow="2" inkscape:window-width="1060" inkscape:window-height="480" id="namedview70" showgrid="false" fit-margin-top="10" fit-margin-left="10" fit-margin-right="10" fit-margin-bottom="10" inkscape:zoom="0.36375" inkscape:cx="357.97525" inkscape:cy="165.84091" inkscape:window-x="0" inkscape:window-y="0" inkscape:window-maximized="0" inkscape:current-layer="svg2"/>
  <!--Generated by Marvin with Batik SVG Generator-->
  <defs id="genericDefs"/>
  <g id="g5" transform="translate(-42.024752,-133.7195)">
    <defs id="625978542216-defs1">
      <clipPath clipPathUnits="userSpaceOnUse" id="625978542640-clipPath1">
        <path d="M 0,0 800,0 800,600 0,600 0,0 Z" id="path9" inkscape:connector-curvature="0"/>
      </clipPath>
      <clipPath clipPathUnits="userSpaceOnUse" id="62597854219-clipPath1">
        <path d="m 550.5378,181.9307 c -31.107,0 -56.3243,25.2172 -56.3243,56.3243 0,31.1071 25.2173,56.3243 56.3243,56.3243 31.1071,0 56.3243,-25.2172 56.3243,-56.3243 0,-31.1071 -25.2172,-56.3243 -56.3243,-56.3243 z" id="path12" inkscape:connector-curvature="0"/>
      </clipPath>
      <clipPath clipPathUnits="userSpaceOnUse" id="625978542518-clipPath1">
        <path d="m -655.8055,-136.7567 800,0 0,600 -800,0 0,-600 z" id="path15" inkscape:connector-curvature="0"/>
      </clipPath>
      <clipPath clipPathUnits="userSpaceOnUse" id="625978542663-clipPath1">
        <path d="m -724.3055,-162.9267 800,0 0,600 -800,0 0,-600 z" id="path18" inkscape:connector-curvature="0"/>
      </clipPath>
    </defs>
    <g id="g20" style="text-rendering:geometricPrecision">
      <path d="m 52.0254,381.2401 c 0,1.7098 1.3855,3.0953 3.0954,3.0953 1.7099,0 3.0954,-1.3855 3.0954,-3.0953 l 0,-143.0269 c 0,-1.7099 -1.3855,-3.0954 -3.0954,-3.0954 -1.7099,0 -3.0954,1.3855 -3.0954,3.0954 z M 77.8207,363.251 c 0,1.7098 1.3856,3.0954 3.0955,3.0954 1.7099,0 3.0954,-1.3856 3.0954,-3.0954 l 0,-107.0475 c 0,-1.7099 -1.3855,-3.0955 -3.0954,-3.0955 -1.7099,0 -3.0955,1.3856 -3.0955,3.0955 z" clip-path="url(#625978542640-clipPath1)" id="path22" inkscape:connector-curvature="0" style="stroke:none"/>
    </g>
    <g id="g24" style="text-rendering:geometricPrecision">
      <path d="m 180.1167,418.7317 c -1.4809,0.8548 -1.9882,2.7474 -1.1334,4.2283 0.8548,1.4809 2.7474,1.9882 4.2283,1.1334 l 92.69,-53.504 c 1.4809,-0.8548 1.9882,-2.7475 1.1334,-4.2283 -0.8548,-1.4809 -2.7474,-1.9882 -4.2283,-1.1334 z m -2.6815,31.3323 c -1.4809,0.8548 -1.9882,2.7474 -1.1334,4.2283 0.8548,1.4809 2.7474,1.9882 4.2283,1.1333 l 123.8468,-71.4887 c 1.4809,-0.8548 1.9882,-2.7475 1.1334,-4.2283 -0.8549,-1.4809 -2.7475,-1.9882 -4.2283,-1.1334 z" clip-path="url(#625978542640-clipPath1)" id="path26" inkscape:connector-curvature="0" style="stroke:none"/>
    </g>
    <g id="g28" style="text-rendering:geometricPrecision">
      <path d="m 305.9248,381.2562 0.009,-143.0139 c 10e-5,-1.7098 -1.3853,-3.0954 -3.0952,-3.0956 -1.7099,-1e-4 -3.0955,1.3854 -3.0956,3.0953 l -0.009,143.0138 c -10e-5,1.7099 1.3854,3.0955 3.0952,3.0956 1.7099,10e-5 3.0955,-1.3853 3.0956,-3.0952 z" clip-path="url(#625978542640-clipPath1)" id="path30" inkscape:connector-curvature="0" style="stroke:none"/>
    </g>
    <g id="g32" style="text-rendering:geometricPrecision">
      <path d="m 272.8134,254.2667 c 1.4808,0.855 3.3734,0.3479 4.2284,-1.1328 0.8551,-1.4808 0.348,-3.3735 -1.1328,-4.2285 l -92.7065,-53.5295 c -1.4808,-0.855 -3.3735,-0.3479 -4.2285,1.1328 -0.855,1.4808 -0.348,3.3735 1.1328,4.2285 z m 28.4769,-13.3439 c 1.4807,0.855 3.3734,0.348 4.2284,-1.1328 0.855,-1.4808 0.348,-3.3735 -1.1328,-4.2285 L 180.5241,164.0428 c -1.4807,-0.855 -3.3734,-0.348 -4.2284,1.1328 -0.8551,1.4808 -0.348,3.3734 1.1328,4.2285 z" clip-path="url(#625978542640-clipPath1)" id="path34" inkscape:connector-curvature="0" style="stroke:none"/>
    </g>
    <g id="g36" style="text-rendering:geometricPrecision">
      <path d="m 53.5732,383.9208 123.8618,71.5048 c 1.4809,0.8549 3.3735,0.3477 4.2284,-1.1332 0.8549,-1.4808 0.3477,-3.3735 -1.1332,-4.2284 L 56.6684,378.5593 c -1.4808,-0.8549 -3.3735,-0.3477 -4.2283,1.1331 -0.8549,1.4809 -0.3477,3.3735 1.1331,4.2284 z" clip-path="url(#625978542640-clipPath1)" id="path38" inkscape:connector-curvature="0" style="stroke:none"/>
    </g>
    <g id="g40" style="text-rendering:geometricPrecision">
      <path d="M 177.4289,164.0425 53.5734,235.5323 c -1.4809,0.8548 -1.9882,2.7474 -1.1335,4.2283 0.8548,1.4809 2.7474,1.9883 4.2283,1.1335 l 123.8555,-71.4898 c 1.4809,-0.8548 1.9882,-2.7474 1.1335,-4.2283 -0.8548,-1.4809 -2.7474,-1.9883 -4.2283,-1.1335 z" clip-path="url(#625978542640-clipPath1)" id="path42" inkscape:connector-curvature="0" style="stroke:none"/>
    </g>
    <g id="g44" style="text-rendering:geometricPrecision">
      <path d="m 304.3857,240.9229 123.8535,-71.4983 c 1.4809,-0.8549 1.9881,-2.7475 1.1332,-4.2283 -0.8548,-1.4809 -2.7475,-1.9881 -4.2283,-1.1333 l -123.8536,71.4984 c -1.4808,0.8548 -1.9881,2.7475 -1.1332,4.2283 0.8549,1.4809 2.7475,1.9881 4.2284,1.1332 z" clip-path="url(#625978542640-clipPath1)" id="path46" inkscape:connector-curvature="0" style="stroke:none"/>
    </g>
    <g id="g48" style="text-rendering:geometricPrecision">
      <path d="M 425.1438,169.4244 548.99,240.9356 c 1.4808,0.855 3.3734,0.348 4.2284,-1.1328 0.8551,-1.4807 0.348,-3.3734 -1.1327,-4.2284 L 428.2395,164.0632 c -1.4807,-0.855 -3.3734,-0.348 -4.2285,1.1328 -0.855,1.4807 -0.3479,3.3734 1.1328,4.2284 z" clip-path="url(#625978542640-clipPath1)" id="path50" inkscape:connector-curvature="0" style="stroke:none"/>
    </g>
    <g id="g52" style="fill:#333399;stroke:#333399;text-rendering:geometricPrecision">
      <path d="m 552.0854,240.9358 97.5595,-56.3193 c 1.4808,-0.8549 1.9881,-2.7475 1.1332,-4.2283 -0.8549,-1.4809 -2.7475,-1.9881 -4.2284,-1.1333 l -97.5595,56.3193 c -1.4808,0.8549 -1.988,2.7475 -1.1331,4.2284 0.8548,1.4808 2.7475,1.988 4.2283,1.1332 z" clip-path="url(#625978542640-clipPath1)" id="path54" inkscape:connector-curvature="0" style="stroke:none"/>
      <path d="m 552.0854,240.9358 97.5595,-56.3193 c 1.4808,-0.8549 1.9881,-2.7475 1.1332,-4.2283 -0.8549,-1.4809 -2.7475,-1.9881 -4.2284,-1.1333 l -97.5595,56.3193 c -1.4808,0.8549 -1.988,2.7475 -1.1331,4.2284 0.8548,1.4808 2.7475,1.988 4.2283,1.1332 z" clip-path="url(#62597854219-clipPath1)" id="path56" inkscape:connector-curvature="0" style="fill:#000000;stroke:none"/>
    </g>
    <g id="g58" style="fill:#ffffff;stroke:#ffffff;text-rendering:geometricPrecision">
      <path d="m 671.824,143.7195 c -6.3615,0 -11.5185,5.1571 -11.5185,11.5186 l 0,23.0371 c 0,6.3615 5.157,11.5186 11.5185,11.5186 l 42.9629,0 c 6.3615,0 11.5186,-5.1571 11.5186,-11.5186 l 0,20.4581 c 0,6.5206 4.9493,11.8066 11.0547,11.8066 6.1053,0 11.0547,-5.286 11.0547,-11.8066 l 0,-23.6133 c 0,-6.5206 -4.9494,-11.8066 -11.0547,-11.8066 -6.1054,0 -11.0547,5.286 -11.0547,11.8066 l 0,-19.8819 c 0,-6.3615 -5.1571,-11.5186 -11.5186,-11.5186 z" clip-path="url(#625978542640-clipPath1)" id="path60" inkscape:connector-curvature="0" style="stroke:none"/>
    </g>
    <g font-size="51px" transform="translate(655.8055,136.7566)" id="g62" style="font-size:51px;font-family:sans-serif;fill:#333399;stroke:#333399;text-rendering:geometricPrecision">
      <text x="0" xml:space="preserve" y="49" clip-path="url(#625978542518-clipPath1)" id="text64" style="stroke:none">NH</text>
    </g>
    <g font-size="41px" transform="translate(724.3055,162.9267)" id="g66" style="font-size:41px;font-family:sans-serif;fill:#333399;stroke:#333399;text-rendering:geometricPrecision">
      <text x="0" xml:space="preserve" y="39" clip-path="url(#625978542663-clipPath1)" id="text68" style="stroke:none">2</text>
    </g>
  </g>
</svg>