<?xml version="1.0" encoding="UTF-8" standalone="no"?>
<svg xmlns:dc="http://purl.org/dc/elements/1.1/" xmlns:cc="http://creativecommons.org/ns#" xmlns:rdf="http://www.w3.org/1999/02/22-rdf-syntax-ns#" xmlns:svg="http://www.w3.org/2000/svg" xmlns="http://www.w3.org/2000/svg" xmlns:sodipodi="http://sodipodi.sourceforge.net/DTD/sodipodi-0.dtd" xmlns:inkscape="http://www.inkscape.org/namespaces/inkscape" width="298.56113" stroke-miterlimit="10" font-weight="normal" height="569.21332" font-style="normal" font-size="12px" version="1.1" id="svg201" sodipodi:docname="Zalepon.svg" style="font-style:normal;font-weight:normal;font-size:12px;font-family:Dialog;color-interpolation:auto;fill:#000000;fill-opacity:1;stroke:#000000;stroke-width:1;stroke-linecap:square;stroke-linejoin:miter;stroke-miterlimit:10;stroke-dasharray:none;stroke-dashoffset:0;stroke-opacity:1;color-rendering:auto;image-rendering:auto;shape-rendering:auto;text-rendering:auto" inkscape:version="0.92.2 (5c3e80d, 2017-08-06)">
  <metadata id="metadata205">
    <rdf:RDF>
      <cc:Work rdf:about="">
        <dc:format>image/svg+xml</dc:format>
        <dc:type rdf:resource="http://purl.org/dc/dcmitype/StillImage"/>
        <dc:title/>
      </cc:Work>
    </rdf:RDF>
  </metadata>
  <sodipodi:namedview pagecolor="#ffffff" bordercolor="#666666" borderopacity="1" objecttolerance="10" gridtolerance="10" guidetolerance="10" inkscape:pageopacity="0" inkscape:pageshadow="2" inkscape:window-width="1366" inkscape:window-height="745" id="namedview203" showgrid="false" fit-margin-top="10" fit-margin-left="10" fit-margin-right="10" fit-margin-bottom="10" inkscape:zoom="0.355" inkscape:cx="153.07411" inkscape:cy="284.7248" inkscape:window-x="-8" inkscape:window-y="-8" inkscape:window-maximized="1" inkscape:current-layer="svg201"/>
  <!--Generated by Marvin with Batik SVG Generator-->
  <defs id="genericDefs"/>
  <g id="g199" transform="translate(-246.92589,-15.511488)">
    <defs id="149931991162-defs1">
      <clipPath clipPathUnits="userSpaceOnUse" id="149931991426-clipPath1">
        <path d="M 0,0 H 800 V 600 H 0 Z" id="path3" inkscape:connector-curvature="0"/>
      </clipPath>
      <clipPath clipPathUnits="userSpaceOnUse" id="149931991441-clipPath1">
        <path d="m 258.3357,397.4179 c -14.0878,0 -25.5082,11.4204 -25.5082,25.5082 0,14.0877 11.4204,25.5081 25.5082,25.5081 14.0878,0 25.5081,-11.4204 25.5081,-25.5081 0,-14.0878 -11.4203,-25.5082 -25.5081,-25.5082 z" id="path6" inkscape:connector-curvature="0"/>
      </clipPath>
      <clipPath clipPathUnits="userSpaceOnUse" id="149931991486-clipPath1">
        <path d="m 326.3344,422.9253 c -14.1074,0 -25.5438,11.4363 -25.5438,25.5438 0,14.1074 11.4364,25.5438 25.5438,25.5438 14.1075,0 25.5438,-11.4364 25.5438,-25.5438 0,-14.1075 -11.4363,-25.5438 -25.5438,-25.5438 z" id="path9" inkscape:connector-curvature="0"/>
      </clipPath>
      <clipPath clipPathUnits="userSpaceOnUse" id="149931991120-clipPath1">
        <path d="m 370.578,398.5203 c -13.4789,0 -24.4057,10.9268 -24.4057,24.4058 0,13.4789 10.9268,24.4057 24.4057,24.4057 13.4789,0 24.4058,-10.9268 24.4058,-24.4057 0,-13.479 -10.9269,-24.4058 -24.4058,-24.4058 z" id="path12" inkscape:connector-curvature="0"/>
      </clipPath>
      <clipPath clipPathUnits="userSpaceOnUse" id="149931991348-clipPath1">
        <path d="m 358.6965,325.7099 c -14.1074,0 -25.5438,11.4363 -25.5438,25.5438 0,14.1074 11.4364,25.5438 25.5438,25.5438 14.1075,0 25.5438,-11.4364 25.5438,-25.5438 0,-14.1075 -11.4363,-25.5438 -25.5438,-25.5438 z" id="path15" inkscape:connector-curvature="0"/>
      </clipPath>
      <clipPath clipPathUnits="userSpaceOnUse" id="149931991341-clipPath1">
        <path d="m 470.3029,365.9314 c -13.5865,0 -24.6005,11.0141 -24.6005,24.6006 0,13.5864 11.014,24.6004 24.6005,24.6004 13.5865,0 24.6005,-11.014 24.6005,-24.6004 0,-13.5865 -11.014,-24.6006 -24.6005,-24.6006 z" id="path18" inkscape:connector-curvature="0"/>
      </clipPath>
      <clipPath clipPathUnits="userSpaceOnUse" id="149931991394-clipPath1">
        <path d="m 370.5731,138.149 c -14.1069,0 -25.5428,11.436 -25.5428,25.5429 0,14.1069 11.4359,25.5428 25.5428,25.5428 14.107,0 25.5429,-11.4359 25.5429,-25.5428 0,-14.1069 -11.4359,-25.5429 -25.5429,-25.5429 z" id="path21" inkscape:connector-curvature="0"/>
      </clipPath>
      <clipPath clipPathUnits="userSpaceOnUse" id="149931991884-clipPath1">
        <path d="m 452.2259,480.0862 c -13.5339,0 -24.5053,10.9714 -24.5053,24.5054 0,13.5339 10.9714,24.5053 24.5053,24.5053 13.5339,0 24.5053,-10.9714 24.5053,-24.5053 0,-13.534 -10.9714,-24.5054 -24.5053,-24.5054 z" id="path24" inkscape:connector-curvature="0"/>
      </clipPath>
      <clipPath clipPathUnits="userSpaceOnUse" id="149931991315-clipPath1">
        <path d="m 426.6984,90.8891 c -13.4767,0 -24.4018,10.925 -24.4018,24.4018 0,13.4767 10.9251,24.4018 24.4018,24.4018 13.4768,0 24.4019,-10.9251 24.4019,-24.4018 0,-13.4768 -10.9251,-24.4018 -24.4019,-24.4018 z" id="path27" inkscape:connector-curvature="0"/>
      </clipPath>
      <clipPath clipPathUnits="userSpaceOnUse" id="149931991587-clipPath1">
        <path d="m 438.5788,112.61 c -14.1069,0 -25.5428,11.4358 -25.5428,25.5427 0,14.1068 11.4359,25.5427 25.5428,25.5427 14.1068,0 25.5427,-11.4359 25.5427,-25.5427 0,-14.1069 -11.4359,-25.5427 -25.5427,-25.5427 z" id="path30" inkscape:connector-curvature="0"/>
      </clipPath>
      <clipPath clipPathUnits="userSpaceOnUse" id="149931991486-clipPath2">
        <path d="m 426.701,41.8978 c -13.5804,0 -24.5895,11.0091 -24.5895,24.5894 0,13.5804 11.0091,24.5895 24.5895,24.5895 13.5803,0 24.5894,-11.0091 24.5894,-24.5895 0,-13.5803 -11.0091,-24.5894 -24.5894,-24.5894 z" id="path33" inkscape:connector-curvature="0"/>
      </clipPath>
      <clipPath clipPathUnits="userSpaceOnUse" id="149931991689-clipPath1">
        <path d="m -306.1014,-441.8286 h 800 v 600 h -800 z" id="path36" inkscape:connector-curvature="0"/>
      </clipPath>
      <clipPath clipPathUnits="userSpaceOnUse" id="149931991506-clipPath1">
        <path d="m -362.2265,-344.6132 h 800 v 600 h -800 z" id="path39" inkscape:connector-curvature="0"/>
      </clipPath>
      <clipPath clipPathUnits="userSpaceOnUse" id="149931991648-clipPath1">
        <path d="m -423.8649,-324.6031 h 800 v 600 h -800 z" id="path42" inkscape:connector-curvature="0"/>
      </clipPath>
      <clipPath clipPathUnits="userSpaceOnUse" id="149931991904-clipPath1">
        <path d="m -418.346,-117.7923 h 800 v 600 h -800 z" id="path45" inkscape:connector-curvature="0"/>
      </clipPath>
      <clipPath clipPathUnits="userSpaceOnUse" id="149931991997-clipPath1">
        <path d="m -463.9002,-552.7249 h 800 V 47.2752 h -800 z" id="path48" inkscape:connector-curvature="0"/>
      </clipPath>
      <clipPath clipPathUnits="userSpaceOnUse" id="149931991843-clipPath1">
        <path d="m -361.8064,-20.5818 h 800 v 600 h -800 z" id="path51" inkscape:connector-curvature="0"/>
      </clipPath>
    </defs>
    <g id="g57" style="text-rendering:geometricPrecision">
      <path d="m 313.94,341.1244 c 0.671,-0.3874 0.9008,-1.2451 0.5133,-1.9161 -0.3874,-0.671 -1.2451,-0.9008 -1.9161,-0.5134 l -41.999,24.2506 c -0.671,0.3874 -0.9007,1.2451 -0.5133,1.9161 0.3875,0.671 1.2451,0.9008 1.9161,0.5133 z m 1.2143,-14.199 c 0.671,-0.3875 0.9008,-1.2451 0.5134,-1.9162 -0.3875,-0.671 -1.2452,-0.9007 -1.9162,-0.5133 l -56.1172,32.4025 c -0.671,0.3875 -0.9008,1.2452 -0.5133,1.9161 0.3874,0.6711 1.2451,0.9008 1.9161,0.5134 z" clip-path="url(#149931991426-clipPath1)" id="path55" inkscape:connector-curvature="0" style="stroke:none"/>
    </g>
    <g id="g61" style="text-rendering:geometricPrecision">
      <path d="m 256.933,358.1132 v 64.8129 c 0,0.7748 0.6279,1.4026 1.4027,1.4026 0.7748,0 1.4027,-0.6278 1.4027,-1.4026 v -64.8129 c 0,-0.7749 -0.6279,-1.4027 -1.4027,-1.4027 -0.7748,0 -1.4027,0.6278 -1.4027,1.4027 z" clip-path="url(#149931991426-clipPath1)" id="path59" inkscape:connector-curvature="0" style="stroke:none"/>
    </g>
    <g id="g65" style="text-rendering:geometricPrecision">
      <path d="m 314.9663,245.4918 c -0.671,0.3875 -0.9008,1.2451 -0.5134,1.9162 0.3875,0.671 1.2451,0.9008 1.9161,0.5134 l 41.9997,-24.2493 c 0.6711,-0.3874 0.9009,-1.2451 0.5134,-1.9161 -0.3874,-0.671 -1.245,-0.9008 -1.9161,-0.5134 z m -1.2147,14.199 c -0.6711,0.3875 -0.9009,1.2451 -0.5134,1.9162 0.3874,0.671 1.2451,0.9008 1.9161,0.5134 l 56.1182,-32.4009 c 0.671,-0.3874 0.9008,-1.2451 0.5134,-1.9161 -0.3874,-0.671 -1.2451,-0.9008 -1.9161,-0.5134 z" clip-path="url(#149931991426-clipPath1)" id="path63" inkscape:connector-curvature="0" style="stroke:none"/>
    </g>
    <g id="g69" style="text-rendering:geometricPrecision">
      <path d="m 371.9738,228.5048 0.002,-64.8129 c 0,-0.7748 -0.6278,-1.4027 -1.4026,-1.4027 -0.7749,0 -1.4028,0.6278 -1.4028,1.4026 l -0.002,64.8129 c -1e-4,0.7749 0.6278,1.4027 1.4026,1.4028 0.7748,0 1.4027,-0.6278 1.4027,-1.4027 z" clip-path="url(#149931991426-clipPath1)" id="path67" inkscape:connector-curvature="0" style="stroke:none"/>
    </g>
    <g id="g73" style="text-rendering:geometricPrecision">
      <path d="m 356.9676,170.9532 c 0.6709,0.3875 1.5286,0.1578 1.9161,-0.5132 0.3875,-0.671 0.1577,-1.5287 -0.5133,-1.9162 L 316.3722,144.272 c -0.671,-0.3874 -1.5287,-0.1577 -1.9161,0.5133 -0.3875,0.671 -0.1578,1.5287 0.5132,1.9161 z m 12.9041,-6.0466 c 0.671,0.3875 1.5287,0.1577 1.9161,-0.5133 0.3875,-0.671 0.1578,-1.5287 -0.5132,-1.9161 L 315.1583,130.073 c -0.671,-0.3875 -1.5287,-0.1578 -1.9161,0.5132 -0.3875,0.671 -0.1578,1.5287 0.5132,1.9162 z" clip-path="url(#149931991426-clipPath1)" id="path71" inkscape:connector-curvature="0" style="stroke:none"/>
    </g>
    <g id="g77" style="text-rendering:geometricPrecision">
      <path d="m 313.7556,130.0729 -56.1261,32.4008 c -0.671,0.3874 -0.9009,1.245 -0.5135,1.9161 0.3874,0.671 1.245,0.9009 1.9161,0.5135 l 56.126,-32.4008 c 0.6711,-0.3874 0.901,-1.2451 0.5136,-1.9161 -0.3874,-0.6711 -1.2451,-0.9009 -1.9161,-0.5135 z" clip-path="url(#149931991426-clipPath1)" id="path75" inkscape:connector-curvature="0" style="stroke:none"/>
    </g>
    <g id="g81" style="text-rendering:geometricPrecision">
      <path d="m 271.4225,171.8405 c 0,-0.7749 -0.6279,-1.4027 -1.4027,-1.4028 -0.7748,0 -1.4027,0.6279 -1.4027,1.4027 l -0.002,48.5097 c 0,0.7748 0.6278,1.4027 1.4026,1.4027 0.7749,1e-4 1.4028,-0.6278 1.4028,-1.4026 z m -11.689,-8.152 c 0,-0.7748 -0.6278,-1.4027 -1.4027,-1.4027 -0.7748,0 -1.4027,0.6278 -1.4027,1.4026 l -0.002,64.8129 c 0,0.7749 0.6279,1.4028 1.4027,1.4028 0.7748,0 1.4027,-0.6278 1.4027,-1.4027 z" clip-path="url(#149931991426-clipPath1)" id="path79" inkscape:connector-curvature="0" style="stroke:none"/>
    </g>
    <g id="g85" style="text-rendering:geometricPrecision">
      <path d="m 257.6275,229.7161 56.1241,32.4043 c 0.671,0.3874 1.5287,0.1576 1.9161,-0.5134 0.3874,-0.6711 0.1576,-1.5287 -0.5134,-1.9162 l -56.1241,-32.4042 c -0.671,-0.3874 -1.5287,-0.1576 -1.9161,0.5134 -0.3874,0.671 -0.1576,1.5287 0.5134,1.9161 z" clip-path="url(#149931991426-clipPath1)" id="path83" inkscape:connector-curvature="0" style="stroke:none"/>
    </g>
    <g id="g89" style="text-rendering:geometricPrecision">
      <path d="m 315.8556,325.7106 v -64.805 c 0,-0.7748 -0.6278,-1.4027 -1.4027,-1.4027 -0.7748,0 -1.4027,0.6279 -1.4027,1.4027 v 64.805 c 0,0.7749 0.6279,1.4027 1.4027,1.4027 0.7749,0 1.4027,-0.6278 1.4027,-1.4027 z" clip-path="url(#149931991426-clipPath1)" id="path87" inkscape:connector-curvature="0" style="stroke:none"/>
    </g>
    <g id="g93" style="text-rendering:geometricPrecision">
      <path d="m 433.3408,443.781 38.0968,-52.4245 c 0.4555,-0.6268 0.3167,-1.5038 -0.3101,-1.9593 -0.6268,-0.4555 -1.5038,-0.3167 -1.9593,0.3101 l -38.0969,52.4245 c -0.4555,0.6268 -0.3167,1.5038 0.3101,1.9593 0.6268,0.4555 1.5039,0.3167 1.9594,-0.3101 z" clip-path="url(#149931991426-clipPath1)" id="path91" inkscape:connector-curvature="0" style="stroke:none"/>
    </g>
    <g id="g97" style="text-rendering:geometricPrecision">
      <path d="m 384.0348,413.5337 c -0.7369,-0.2395 -1.5281,0.1636 -1.7676,0.9004 -0.2395,0.737 0.1636,1.5281 0.9005,1.7676 l 42.8072,13.9133 c 0.7369,0.2395 1.5281,-0.1636 1.7676,-0.9005 0.2395,-0.7369 -0.1635,-1.528 -0.9004,-1.7675 z m -13.0232,8.0583 c -0.7369,-0.2395 -1.5281,0.1636 -1.7676,0.9005 -0.2395,0.7369 0.1636,1.528 0.9004,1.7675 l 61.6281,20.0304 c 0.7368,0.2395 1.528,-0.1635 1.7675,-0.9004 0.2395,-0.7369 -0.1635,-1.5281 -0.9004,-1.7676 z" clip-path="url(#149931991426-clipPath1)" id="path95" inkscape:connector-curvature="0" style="stroke:none"/>
    </g>
    <g id="g101" style="text-rendering:geometricPrecision">
      <path d="m 430.8719,443.3897 20.0199,61.6352 c 0.2394,0.7369 1.0305,1.1401 1.7674,0.9008 0.737,-0.2394 1.1401,-1.0305 0.9008,-1.7674 l -20.0199,-61.6352 c -0.2393,-0.737 -1.0305,-1.1402 -1.7674,-0.9008 -0.7369,0.2394 -1.1401,1.0305 -0.9008,1.7674 z" clip-path="url(#149931991426-clipPath1)" id="path99" inkscape:connector-curvature="0" style="stroke:none"/>
    </g>
    <g id="g107" style="fill:#333399;stroke:#333399;text-rendering:geometricPrecision">
      <path d="m 271.941,415.6643 c -0.671,-0.3875 -1.5286,-0.1577 -1.9161,0.5133 -0.3874,0.671 -0.1577,1.5287 0.5133,1.9162 l 37.1215,21.4342 c 0.671,0.3874 1.5287,0.1576 1.9161,-0.5134 0.3875,-0.671 0.1577,-1.5287 -0.5133,-1.9161 z m -12.9039,6.047 c -0.671,-0.3874 -1.5287,-0.1577 -1.9161,0.5133 -0.3875,0.6711 -0.1577,1.5287 0.5133,1.9162 l 44.1803,25.51 c 0.6711,0.3875 1.5287,0.1577 1.9162,-0.5133 0.3874,-0.671 0.1576,-1.5287 -0.5134,-1.9161 z" clip-path="url(#149931991426-clipPath1)" id="path103" inkscape:connector-curvature="0" style="stroke:none"/>
      <path d="m 271.941,415.6643 c -0.671,-0.3875 -1.5286,-0.1577 -1.9161,0.5133 -0.3874,0.671 -0.1577,1.5287 0.5133,1.9162 l 37.1215,21.4342 c 0.671,0.3874 1.5287,0.1576 1.9161,-0.5134 0.3875,-0.671 0.1577,-1.5287 -0.5133,-1.9161 z m -12.9039,6.047 c -0.671,-0.3874 -1.5287,-0.1577 -1.9161,0.5133 -0.3875,0.6711 -0.1577,1.5287 0.5133,1.9162 l 44.1803,25.51 c 0.6711,0.3875 1.5287,0.1577 1.9162,-0.5133 0.3874,-0.671 0.1576,-1.5287 -0.5134,-1.9161 z" clip-path="url(#149931991441-clipPath1)" id="path105" inkscape:connector-curvature="0" style="fill:#000000;stroke:none"/>
    </g>
    <g id="g113" style="text-rendering:geometricPrecision">
      <path d="m 327.0357,449.6838 44.2437,-25.543 c 0.671,-0.3874 0.9008,-1.245 0.5134,-1.9161 -0.3874,-0.671 -1.2451,-0.9008 -1.9161,-0.5134 l -44.2436,25.543 c -0.671,0.3874 -0.9009,1.2451 -0.5134,1.9161 0.3873,0.671 1.245,0.9009 1.916,0.5134 z" clip-path="url(#149931991426-clipPath1)" id="path109" inkscape:connector-curvature="0" style="stroke:none"/>
      <path d="m 327.0357,449.6838 44.2437,-25.543 c 0.671,-0.3874 0.9008,-1.245 0.5134,-1.9161 -0.3874,-0.671 -1.2451,-0.9008 -1.9161,-0.5134 l -44.2436,25.543 c -0.671,0.3874 -0.9009,1.2451 -0.5134,1.9161 0.3873,0.671 1.245,0.9009 1.916,0.5134 z" clip-path="url(#149931991486-clipPath1)" id="path111" inkscape:connector-curvature="0" style="fill:#333399;stroke:none"/>
    </g>
    <g id="g119" style="fill:#333399;stroke:#333399;text-rendering:geometricPrecision">
      <path d="m 371.9807,422.9261 v -48.8115 c 0,-0.7749 -0.6278,-1.4027 -1.4027,-1.4027 -0.7748,0 -1.4027,0.6278 -1.4027,1.4027 v 48.8115 c 0,0.7748 0.6279,1.4026 1.4027,1.4026 0.7749,0 1.4027,-0.6278 1.4027,-1.4026 z" clip-path="url(#149931991426-clipPath1)" id="path115" inkscape:connector-curvature="0" style="stroke:none"/>
      <path d="m 371.9807,422.9261 v -48.8115 c 0,-0.7749 -0.6278,-1.4027 -1.4027,-1.4027 -0.7748,0 -1.4027,0.6278 -1.4027,1.4027 v 48.8115 c 0,0.7748 0.6279,1.4026 1.4027,1.4026 0.7749,0 1.4027,-0.6278 1.4027,-1.4026 z" clip-path="url(#149931991120-clipPath1)" id="path117" inkscape:connector-curvature="0" style="fill:#000000;stroke:none"/>
    </g>
    <g id="g125" style="text-rendering:geometricPrecision">
      <path d="m 359.3979,350.0389 -44.2436,-25.5431 c -0.6711,-0.3873 -1.5288,-0.1575 -1.9161,0.5135 -0.3875,0.6711 -0.1576,1.5287 0.5134,1.9161 l 44.2436,25.543 c 0.6711,0.3874 1.5287,0.1576 1.9161,-0.5134 0.3874,-0.6711 0.1576,-1.5287 -0.5134,-1.9161 z" clip-path="url(#149931991426-clipPath1)" id="path121" inkscape:connector-curvature="0" style="stroke:none"/>
      <path d="m 359.3979,350.0389 -44.2436,-25.5431 c -0.6711,-0.3873 -1.5288,-0.1575 -1.9161,0.5135 -0.3875,0.6711 -0.1576,1.5287 0.5134,1.9161 l 44.2436,25.543 c 0.6711,0.3874 1.5287,0.1576 1.9161,-0.5134 0.3874,-0.6711 0.1576,-1.5287 -0.5134,-1.9161 z" clip-path="url(#149931991348-clipPath1)" id="path123" inkscape:connector-curvature="0" style="fill:#333399;stroke:none"/>
    </g>
    <g id="g131" style="fill:#333399;stroke:#333399;text-rendering:geometricPrecision">
      <path d="m 453.8948,390.2203 c 0.4554,0.6269 1.3324,0.7658 1.9593,0.3104 0.6269,-0.4554 0.7658,-1.3324 0.3104,-1.9593 l -23.1009,-31.8001 c -0.4554,-0.6269 -1.3324,-0.7659 -1.9593,-0.3105 -0.6269,0.4554 -0.7659,1.3324 -0.3104,1.9593 z m 15.2733,1.1361 c 0.4553,0.6268 1.3323,0.7658 1.9592,0.3104 0.6269,-0.4554 0.7659,-1.3324 0.3105,-1.9592 l -28.917,-39.8064 c -0.4554,-0.6269 -1.3324,-0.7659 -1.9593,-0.3105 -0.6269,0.4554 -0.7658,1.3324 -0.3104,1.9593 z" clip-path="url(#149931991426-clipPath1)" id="path127" inkscape:connector-curvature="0" style="stroke:none"/>
      <path d="m 453.8948,390.2203 c 0.4554,0.6269 1.3324,0.7658 1.9593,0.3104 0.6269,-0.4554 0.7658,-1.3324 0.3104,-1.9593 l -23.1009,-31.8001 c -0.4554,-0.6269 -1.3324,-0.7659 -1.9593,-0.3105 -0.6269,0.4554 -0.7659,1.3324 -0.3104,1.9593 z m 15.2733,1.1361 c 0.4553,0.6268 1.3323,0.7658 1.9592,0.3104 0.6269,-0.4554 0.7659,-1.3324 0.3105,-1.9592 l -28.917,-39.8064 c -0.4554,-0.6269 -1.3324,-0.7659 -1.9593,-0.3105 -0.6269,0.4554 -0.7658,1.3324 -0.3104,1.9593 z" clip-path="url(#149931991341-clipPath1)" id="path129" inkscape:connector-curvature="0" style="fill:#000000;stroke:none"/>
    </g>
    <g id="g135" style="fill:#333399;stroke:#333399;text-rendering:geometricPrecision">
      <path d="m 383.1324,355.5123 37.3959,-12.14 c 0.737,-0.2393 1.1403,-1.0303 0.901,-1.7673 -0.2392,-0.737 -1.0303,-1.1403 -1.7673,-0.9011 l -37.3958,12.1401 c -0.737,0.2393 -1.1403,1.0303 -0.9011,1.7673 0.2393,0.7369 1.0303,1.1403 1.7673,0.901 z" clip-path="url(#149931991426-clipPath1)" id="path133" inkscape:connector-curvature="0" style="stroke:none"/>
    </g>
    <g id="g141" style="fill:#333399;stroke:#333399;text-rendering:geometricPrecision">
      <path d="m 371.2744,164.9067 44.2428,-25.5406 c 0.6711,-0.3874 0.901,-1.245 0.5136,-1.9161 -0.3874,-0.671 -1.2451,-0.9009 -1.9161,-0.5135 l -44.2429,25.5406 c -0.671,0.3874 -0.9009,1.245 -0.5135,1.9161 0.3874,0.671 1.2451,0.9009 1.9161,0.5135 z" clip-path="url(#149931991426-clipPath1)" id="path137" inkscape:connector-curvature="0" style="stroke:none"/>
      <path d="m 371.2744,164.9067 44.2428,-25.5406 c 0.6711,-0.3874 0.901,-1.245 0.5136,-1.9161 -0.3874,-0.671 -1.2451,-0.9009 -1.9161,-0.5135 l -44.2429,25.5406 c -0.671,0.3874 -0.9009,1.245 -0.5135,1.9161 0.3874,0.671 1.2451,0.9009 1.9161,0.5135 z" clip-path="url(#149931991394-clipPath1)" id="path139" inkscape:connector-curvature="0" style="fill:#000000;stroke:none"/>
    </g>
    <g id="g147" style="fill:#333399;stroke:#333399;text-rendering:geometricPrecision">
      <path d="m 464.6771,500.546 c -0.2395,-0.7369 -1.0306,-1.1401 -1.7676,-0.9006 -0.7369,0.2394 -1.14,1.0306 -0.9005,1.7675 l 15.1451,46.6119 c 0.2394,0.7369 1.0306,1.14 1.7675,0.9006 0.7369,-0.2395 1.14,-1.0306 0.9006,-1.7675 z m -11.1172,3.6121 c -0.2394,-0.7369 -1.0305,-1.14 -1.7675,-0.9006 -0.7369,0.2395 -1.14,1.0306 -0.9005,1.7675 l 15.1451,46.612 c 0.2394,0.7368 1.0306,1.14 1.7675,0.9005 0.7369,-0.2394 1.14,-1.0305 0.9006,-1.7675 z m -11.1171,3.6122 c -0.2394,-0.7369 -1.0305,-1.14 -1.7674,-0.9006 -0.737,0.2394 -1.1401,1.0306 -0.9006,1.7675 l 15.1451,46.6119 c 0.2394,0.7369 1.0306,1.1401 1.7675,0.9006 0.7369,-0.2394 1.14,-1.0306 0.9006,-1.7675 z" clip-path="url(#149931991426-clipPath1)" id="path143" inkscape:connector-curvature="0" style="stroke:none"/>
      <path d="m 464.6771,500.546 c -0.2395,-0.7369 -1.0306,-1.1401 -1.7676,-0.9006 -0.7369,0.2394 -1.14,1.0306 -0.9005,1.7675 l 15.1451,46.6119 c 0.2394,0.7369 1.0306,1.14 1.7675,0.9006 0.7369,-0.2395 1.14,-1.0306 0.9006,-1.7675 z m -11.1172,3.6121 c -0.2394,-0.7369 -1.0305,-1.14 -1.7675,-0.9006 -0.7369,0.2395 -1.14,1.0306 -0.9005,1.7675 l 15.1451,46.612 c 0.2394,0.7368 1.0306,1.14 1.7675,0.9005 0.7369,-0.2394 1.14,-1.0305 0.9006,-1.7675 z m -11.1171,3.6122 c -0.2394,-0.7369 -1.0305,-1.14 -1.7674,-0.9006 -0.737,0.2394 -1.1401,1.0306 -0.9006,1.7675 l 15.1451,46.6119 c 0.2394,0.7369 1.0306,1.1401 1.7675,0.9006 0.7369,-0.2394 1.14,-1.0306 0.9006,-1.7675 z" clip-path="url(#149931991884-clipPath1)" id="path145" inkscape:connector-curvature="0" style="fill:#000000;stroke:none"/>
    </g>
    <g id="g153" style="text-rendering:geometricPrecision">
      <path d="m 428.1011,115.2909 0.003,-48.8036 c 0,-0.7748 -0.6278,-1.4027 -1.4027,-1.4028 -0.7748,0 -1.4027,0.6278 -1.4027,1.4027 l -0.003,48.8036 c 0,0.7748 0.6278,1.4027 1.4027,1.4028 0.7748,0 1.4027,-0.6278 1.4027,-1.4027 z" clip-path="url(#149931991426-clipPath1)" id="path149" inkscape:connector-curvature="0" style="stroke:none"/>
      <path d="m 428.1011,115.2909 0.003,-48.8036 c 0,-0.7748 -0.6278,-1.4027 -1.4027,-1.4028 -0.7748,0 -1.4027,0.6278 -1.4027,1.4027 l -0.003,48.8036 c 0,0.7748 0.6278,1.4027 1.4027,1.4028 0.7748,0 1.4027,-0.6278 1.4027,-1.4027 z" clip-path="url(#149931991315-clipPath1)" id="path151" inkscape:connector-curvature="0" style="fill:#333399;stroke:none"/>
    </g>
    <g id="g159" style="text-rendering:geometricPrecision">
      <path d="m 437.8773,139.3674 44.24,25.545 c 0.671,0.3875 1.5287,0.1577 1.9162,-0.5133 0.3874,-0.671 0.1577,-1.5287 -0.5134,-1.9161 l -44.2399,-25.545 c -0.671,-0.3875 -1.5287,-0.1577 -1.9162,0.5133 -0.3874,0.671 -0.1576,1.5287 0.5133,1.9161 z" clip-path="url(#149931991426-clipPath1)" id="path155" inkscape:connector-curvature="0" style="stroke:none"/>
      <path d="m 437.8773,139.3674 44.24,25.545 c 0.671,0.3875 1.5287,0.1577 1.9162,-0.5133 0.3874,-0.671 0.1577,-1.5287 -0.5134,-1.9161 l -44.2399,-25.545 c -0.671,-0.3875 -1.5287,-0.1577 -1.9162,0.5133 -0.3874,0.671 -0.1576,1.5287 0.5133,1.9161 z" clip-path="url(#149931991587-clipPath1)" id="path157" inkscape:connector-curvature="0" style="fill:#333399;stroke:none"/>
    </g>
    <g id="g165" style="fill:#ff0000;stroke:#ff0000;text-rendering:geometricPrecision">
      <path d="m 425.9992,74.4507 c 0.671,0.3875 1.5287,0.1577 1.9161,-0.5133 0.3875,-0.671 0.1577,-1.5287 -0.5133,-1.9161 l -45.5111,-26.279 c -0.671,-0.3875 -1.5287,-0.1577 -1.9161,0.5133 -0.3875,0.671 -0.1577,1.5287 0.5133,1.9161 z m 5.8451,-10.1228 c 0.6711,0.3874 1.5287,0.1577 1.9162,-0.5133 0.3874,-0.6711 0.1577,-1.5287 -0.5133,-1.9162 l -45.5111,-26.279 c -0.671,-0.3874 -1.5287,-0.1577 -1.9162,0.5134 -0.3874,0.671 -0.1577,1.5286 0.5134,1.9161 z" clip-path="url(#149931991426-clipPath1)" id="path161" inkscape:connector-curvature="0" style="stroke:none"/>
      <path d="m 425.9992,74.4507 c 0.671,0.3875 1.5287,0.1577 1.9161,-0.5133 0.3875,-0.671 0.1577,-1.5287 -0.5133,-1.9161 l -45.5111,-26.279 c -0.671,-0.3875 -1.5287,-0.1577 -1.9161,0.5133 -0.3875,0.671 -0.1577,1.5287 0.5133,1.9161 z m 5.8451,-10.1228 c 0.6711,0.3874 1.5287,0.1577 1.9162,-0.5133 0.3874,-0.6711 0.1577,-1.5287 -0.5133,-1.9162 l -45.5111,-26.279 c -0.671,-0.3874 -1.5287,-0.1577 -1.9162,0.5134 -0.3874,0.671 -0.1577,1.5286 0.5134,1.9161 z" clip-path="url(#149931991486-clipPath2)" id="path163" inkscape:connector-curvature="0" style="fill:#000000;stroke:none"/>
    </g>
    <g id="g169" style="text-rendering:geometricPrecision">
      <path d="m 427.4023,67.702 51.2652,-29.5944 c 0.6711,-0.3874 0.9009,-1.2451 0.5135,-1.9161 -0.3873,-0.6711 -1.245,-0.9009 -1.916,-0.5136 l -51.2653,29.5945 c -0.6711,0.3874 -0.9009,1.2451 -0.5135,1.9161 0.3873,0.6711 1.245,0.9009 1.9161,0.5135 z" clip-path="url(#149931991426-clipPath1)" id="path167" inkscape:connector-curvature="0" style="stroke:none"/>
    </g>
    <g id="g173" style="text-rendering:geometricPrecision">
      <path d="m 483.52,164.9125 51.2653,-29.5945 c 0.6711,-0.3874 0.9009,-1.245 0.5135,-1.9161 -0.3874,-0.671 -1.245,-0.9009 -1.916,-0.5135 l -51.2653,29.5945 c -0.6711,0.3874 -0.9009,1.245 -0.5136,1.9161 0.3874,0.671 1.2451,0.9009 1.9161,0.5135 z" clip-path="url(#149931991426-clipPath1)" id="path171" inkscape:connector-curvature="0" style="stroke:none"/>
    </g>
    <g font-size="23px" transform="translate(306.1014,441.8286)" id="g177" style="font-size:23px;font-family:sans-serif;fill:#333399;stroke:#333399;text-rendering:geometricPrecision">
      <text x="0" xml:space="preserve" y="22" clip-path="url(#149931991689-clipPath1)" id="text175" style="stroke:none">N</text>
    </g>
    <g font-size="23px" transform="translate(362.2265,344.6132)" id="g181" style="font-size:23px;font-family:sans-serif;fill:#333399;stroke:#333399;text-rendering:geometricPrecision">
      <text x="0" xml:space="preserve" y="22" clip-path="url(#149931991506-clipPath1)" id="text179" style="stroke:none">N</text>
    </g>
    <g font-size="23px" transform="translate(423.8649,324.6031)" id="g185" style="font-size:23px;font-family:sans-serif;fill:#333399;stroke:#333399;text-rendering:geometricPrecision">
      <text x="0" xml:space="preserve" y="22" clip-path="url(#149931991648-clipPath1)" id="text183" style="stroke:none">N</text>
    </g>
    <g font-size="23px" transform="translate(418.346,117.7923)" id="g189" style="font-size:23px;font-family:sans-serif;fill:#333399;stroke:#333399;text-rendering:geometricPrecision">
      <text x="0" xml:space="preserve" y="22" clip-path="url(#149931991904-clipPath1)" id="text187" style="stroke:none">N</text>
    </g>
    <g font-size="23px" transform="translate(463.9002,552.7248)" id="g193" style="font-size:23px;font-family:sans-serif;fill:#333399;stroke:#333399;text-rendering:geometricPrecision">
      <text x="0" xml:space="preserve" y="22" clip-path="url(#149931991997-clipPath1)" id="text191" style="stroke:none">N</text>
    </g>
    <g font-size="23px" transform="translate(361.8064,20.5818)" id="g197" style="font-size:23px;font-family:sans-serif;fill:#ff0000;stroke:#ff0000;text-rendering:geometricPrecision">
      <text x="0" xml:space="preserve" y="22" clip-path="url(#149931991843-clipPath1)" id="text195" style="stroke:none">O</text>
    </g>
  </g>
</svg>