<?xml version="1.0" encoding="UTF-8" standalone="no"?>
<svg xmlns:dc="http://purl.org/dc/elements/1.1/" xmlns:cc="http://creativecommons.org/ns#" xmlns:rdf="http://www.w3.org/1999/02/22-rdf-syntax-ns#" xmlns:svg="http://www.w3.org/2000/svg" xmlns="http://www.w3.org/2000/svg" xmlns:sodipodi="http://sodipodi.sourceforge.net/DTD/sodipodi-0.dtd" xmlns:inkscape="http://www.inkscape.org/namespaces/inkscape" width="520.80408" stroke-miterlimit="10" font-weight="normal" height="569.30481" font-style="normal" font-size="12px" version="1.1" id="svg299" sodipodi:docname="Zopiclone.svg" style="font-style:normal;font-weight:normal;font-size:12px;font-family:Dialog;color-interpolation:auto;fill:#000000;fill-opacity:1;stroke:#000000;stroke-width:1;stroke-linecap:square;stroke-linejoin:miter;stroke-miterlimit:10;stroke-dasharray:none;stroke-dashoffset:0;stroke-opacity:1;color-rendering:auto;image-rendering:auto;shape-rendering:auto;text-rendering:auto" inkscape:version="0.92.2 (5c3e80d, 2017-08-06)">
  <metadata id="metadata303">
    <rdf:RDF>
      <cc:Work rdf:about="">
        <dc:format>image/svg+xml</dc:format>
        <dc:type rdf:resource="http://purl.org/dc/dcmitype/StillImage"/>
        <dc:title/>
      </cc:Work>
    </rdf:RDF>
  </metadata>
  <sodipodi:namedview pagecolor="#ffffff" bordercolor="#666666" borderopacity="1" objecttolerance="10" gridtolerance="10" guidetolerance="10" inkscape:pageopacity="0" inkscape:pageshadow="2" inkscape:window-width="1366" inkscape:window-height="745" id="namedview301" showgrid="false" inkscape:pagecheckerboard="false" fit-margin-top="10" fit-margin-left="10" fit-margin-right="10" fit-margin-bottom="10" inkscape:zoom="0.355" inkscape:cx="439.09976" inkscape:cy="285.49148" inkscape:window-x="-8" inkscape:window-y="-8" inkscape:window-maximized="1" inkscape:current-layer="svg299"/>
  <!--Generated by Marvin with Batik SVG Generator-->
  <defs id="genericDefs"/>
  <g id="g297" transform="translate(-139.08639,-16.1867)">
    <defs id="2099644002211-defs1">
      <clipPath clipPathUnits="userSpaceOnUse" id="2099644002629-clipPath1">
        <path d="M 0,0 H 800 V 600 H 0 Z" id="path3" inkscape:connector-curvature="0"/>
      </clipPath>
      <clipPath clipPathUnits="userSpaceOnUse" id="2099644002986-clipPath1">
        <path d="m 150.5465,161.3837 c -14.6513,0 -26.5286,11.8773 -26.5286,26.5286 0,14.6514 11.8773,26.5286 26.5286,26.5286 14.6513,0 26.5286,-11.8772 26.5286,-26.5286 0,-14.6513 -11.8773,-26.5286 -26.5286,-26.5286 z" id="path6" inkscape:connector-curvature="0"/>
      </clipPath>
      <clipPath clipPathUnits="userSpaceOnUse" id="2099644002135-clipPath1">
        <path d="m 221.3353,187.9115 c -14.6743,0 -26.5702,11.8959 -26.5702,26.5702 0,14.6743 11.8959,26.5702 26.5702,26.5702 14.6743,0 26.5702,-11.8959 26.5702,-26.5702 0,-14.6743 -11.8959,-26.5702 -26.5702,-26.5702 z" id="path9" inkscape:connector-curvature="0"/>
      </clipPath>
      <clipPath clipPathUnits="userSpaceOnUse" id="2099644002753-clipPath1">
        <path d="m 196.56,67.3266 c -14.6723,0 -26.5666,11.8943 -26.5666,26.5666 0,14.6723 11.8943,26.5666 26.5666,26.5666 14.6723,0 26.5666,-11.8943 26.5666,-26.5666 0,-14.6723 -11.8943,-26.5666 -26.5666,-26.5666 z" id="path12" inkscape:connector-curvature="0"/>
      </clipPath>
      <clipPath clipPathUnits="userSpaceOnUse" id="209964400210-clipPath1">
        <path d="m 267.3567,93.8916 c -14.6743,0 -26.5702,11.8959 -26.5702,26.5702 0,14.6743 11.8959,26.5702 26.5702,26.5702 14.6743,0 26.5702,-11.8959 26.5702,-26.5702 0,-14.6743 -11.8959,-26.5702 -26.5702,-26.5702 z" id="path15" inkscape:connector-curvature="0"/>
      </clipPath>
      <clipPath clipPathUnits="userSpaceOnUse" id="2099644002605-clipPath1">
        <path d="m 331.4928,183.1693 c -14.1322,0 -25.5885,11.4564 -25.5885,25.5885 0,14.1322 11.4563,25.5885 25.5885,25.5885 14.1321,0 25.5885,-11.4563 25.5885,-25.5885 0,-14.1321 -11.4564,-25.5885 -25.5885,-25.5885 z" id="path18" inkscape:connector-curvature="0"/>
      </clipPath>
      <clipPath clipPathUnits="userSpaceOnUse" id="2099644002525-clipPath1">
        <path d="m 361.5805,115.4532 c -14.1315,0 -25.5873,11.4558 -25.5873,25.5872 0,14.1315 11.4558,25.5873 25.5873,25.5873 14.1314,0 25.5873,-11.4558 25.5873,-25.5873 0,-14.1314 -11.4559,-25.5872 -25.5873,-25.5872 z" id="path21" inkscape:connector-curvature="0"/>
      </clipPath>
      <clipPath clipPathUnits="userSpaceOnUse" id="2099644002301-clipPath1">
        <path d="m 331.5036,74.677 c -13.7852,0 -24.9604,11.1751 -24.9604,24.9604 0,13.7852 11.1752,24.9604 24.9604,24.9604 13.7852,0 24.9604,-11.1752 24.9604,-24.9604 0,-13.7853 -11.1752,-24.9604 -24.9604,-24.9604 z" id="path24" inkscape:connector-curvature="0"/>
      </clipPath>
      <clipPath clipPathUnits="userSpaceOnUse" id="2099644002263-clipPath1">
        <path d="m 307.1948,296.7469 c -14.5083,0 -26.2696,11.7613 -26.2696,26.2695 0,14.5083 11.7613,26.2696 26.2696,26.2696 14.5082,0 26.2695,-11.7613 26.2695,-26.2696 0,-14.5082 -11.7613,-26.2695 -26.2695,-26.2695 z" id="path27" inkscape:connector-curvature="0"/>
      </clipPath>
      <clipPath clipPathUnits="userSpaceOnUse" id="2099644002556-clipPath1">
        <path d="m 331.4928,183.5948 c -13.8972,0 -25.163,11.2659 -25.163,25.163 0,13.8972 11.2658,25.163 25.163,25.163 13.8971,0 25.163,-11.2658 25.163,-25.163 0,-13.8971 -11.2659,-25.163 -25.163,-25.163 z" id="path30" inkscape:connector-curvature="0"/>
      </clipPath>
      <clipPath clipPathUnits="userSpaceOnUse" id="2099644002716-clipPath1">
        <path d="m 340.722,260.7377 c -13.8348,0 -25.0501,11.2154 -25.0501,25.0502 0,13.8348 11.2153,25.0502 25.0501,25.0502 13.8349,0 25.0502,-11.2154 25.0502,-25.0502 0,-13.8348 -11.2153,-25.0502 -25.0502,-25.0502 z" id="path33" inkscape:connector-curvature="0"/>
      </clipPath>
      <clipPath clipPathUnits="userSpaceOnUse" id="2099644002834-clipPath1">
        <path d="m 303.7427,474.1743 c -15.0526,0 -27.2552,12.2026 -27.2552,27.2552 0,15.0526 12.2026,27.2551 27.2552,27.2551 15.0526,0 27.2552,-12.2025 27.2552,-27.2551 0,-15.0526 -12.2026,-27.2552 -27.2552,-27.2552 z" id="path36" inkscape:connector-curvature="0"/>
      </clipPath>
      <clipPath clipPathUnits="userSpaceOnUse" id="2099644002361-clipPath1">
        <path d="m 380.1656,477.9258 c -14.3093,0 -25.9093,11.5999 -25.9093,25.9092 0,14.3092 11.6,25.9092 25.9093,25.9092 14.3093,0 25.9092,-11.6 25.9092,-25.9092 0,-14.3093 -11.5999,-25.9092 -25.9092,-25.9092 z" id="path39" inkscape:connector-curvature="0"/>
      </clipPath>
      <clipPath clipPathUnits="userSpaceOnUse" id="2099644002827-clipPath1">
        <path d="m 307.1948,297.528 c -14.0769,0 -25.4885,11.4116 -25.4885,25.4884 0,14.0769 11.4116,25.4885 25.4885,25.4885 14.0768,0 25.4884,-11.4116 25.4884,-25.4885 0,-14.0768 -11.4116,-25.4884 -25.4884,-25.4884 z" id="path42" inkscape:connector-curvature="0"/>
      </clipPath>
      <clipPath clipPathUnits="userSpaceOnUse" id="2099644002740-clipPath1">
        <path d="m 317.5757,372.8587 c -14.3103,0 -25.911,11.6007 -25.911,25.9109 0,14.3102 11.6007,25.911 25.911,25.911 14.3102,0 25.9109,-11.6008 25.9109,-25.911 0,-14.3102 -11.6007,-25.9109 -25.9109,-25.9109 z" id="path45" inkscape:connector-curvature="0"/>
      </clipPath>
      <clipPath clipPathUnits="userSpaceOnUse" id="2099644002639-clipPath1">
        <path d="m 340.6772,362.5911 c -15.0537,0 -27.2571,12.2034 -27.2571,27.257 0,15.0537 12.2034,27.2571 27.2571,27.2571 15.0536,0 27.257,-12.2034 27.257,-27.2571 0,-15.0536 -12.2034,-27.257 -27.257,-27.257 z" id="path48" inkscape:connector-curvature="0"/>
      </clipPath>
      <clipPath clipPathUnits="userSpaceOnUse" id="2099644002162-clipPath1">
        <path d="m 383.6121,126.7158 c -15.1796,0 -27.4852,12.3055 -27.4852,27.4851 0,15.1797 12.3056,27.4852 27.4852,27.4852 15.1796,0 27.4852,-12.3055 27.4852,-27.4852 0,-15.1796 -12.3056,-27.4851 -27.4852,-27.4851 z" id="path51" inkscape:connector-curvature="0"/>
      </clipPath>
      <clipPath clipPathUnits="userSpaceOnUse" id="2099644002346-clipPath1">
        <path d="m 539.756,68.3102 c -15.182,0 -27.4893,12.3074 -27.4893,27.4893 0,15.1819 12.3073,27.4893 27.4893,27.4893 15.1819,0 27.4892,-12.3074 27.4892,-27.4893 0,-15.1819 -12.3073,-27.4893 -27.4892,-27.4893 z" id="path54" inkscape:connector-curvature="0"/>
      </clipPath>
      <clipPath clipPathUnits="userSpaceOnUse" id="2099644002788-clipPath1">
        <path d="m 464.1971,84.2269 c -14.1463,0 -25.6141,11.4678 -25.6141,25.6141 0,14.1463 11.4678,25.6141 25.6141,25.6141 14.1463,0 25.6141,-11.4678 25.6141,-25.6141 0,-14.1463 -11.4678,-25.6141 -25.6141,-25.6141 z" id="path57" inkscape:connector-curvature="0"/>
      </clipPath>
      <clipPath clipPathUnits="userSpaceOnUse" id="2099644002679-clipPath1">
        <path d="m 573.4754,128.5097 c -14.1937,0 -25.7001,11.5063 -25.7001,25.7 0,14.1937 11.5064,25.7 25.7001,25.7 14.1937,0 25.7,-11.5063 25.7,-25.7 0,-14.1937 -11.5063,-25.7 -25.7,-25.7 z" id="path60" inkscape:connector-curvature="0"/>
      </clipPath>
      <clipPath clipPathUnits="userSpaceOnUse" id="2099644002837-clipPath1">
        <path d="m 374.7991,508.5334 c -12.4645,0 -22.569,10.1045 -22.569,22.569 0,12.4646 10.1045,22.569 22.569,22.569 12.4645,0 22.569,-10.1044 22.569,-22.569 0,-12.4645 -10.1045,-22.569 -22.569,-22.569 z" id="path63" inkscape:connector-curvature="0"/>
      </clipPath>
      <clipPath clipPathUnits="userSpaceOnUse" id="2099644002371-clipPath1">
        <path d="m -199.8147,-72.2406 h 800 v 600.0001 h -800 z" id="path66" inkscape:connector-curvature="0"/>
      </clipPath>
      <clipPath clipPathUnits="userSpaceOnUse" id="2099644002263-clipPath2">
        <path d="m -199.8147,-207.1335 h 800 v 600 h -800 z" id="path69" inkscape:connector-curvature="0"/>
      </clipPath>
      <clipPath clipPathUnits="userSpaceOnUse" id="209964400263-clipPath1">
        <path d="m -362.0072,-139.6999 h 800 v 600 h -800 z" id="path72" inkscape:connector-curvature="0"/>
      </clipPath>
      <clipPath clipPathUnits="userSpaceOnUse" id="2099644002471-clipPath1">
        <path d="m -342.718,-258.4014 h 800 v 600 h -800 z" id="path75" inkscape:connector-curvature="0"/>
      </clipPath>
      <clipPath clipPathUnits="userSpaceOnUse" id="209964400289-clipPath1">
        <path d="m -342.7455,-20.9992 h 800 v 600 h -800 z" id="path78" inkscape:connector-curvature="0"/>
      </clipPath>
      <clipPath clipPathUnits="userSpaceOnUse" id="2099644002659-clipPath1">
        <path d="m -231.6181,-294.488 h 800 v 600 h -800 z" id="path81" inkscape:connector-curvature="0"/>
      </clipPath>
      <clipPath clipPathUnits="userSpaceOnUse" id="2099644002668-clipPath1">
        <path d="m -318.8965,-372.66 h 800 v 600 h -800 z" id="path84" inkscape:connector-curvature="0"/>
      </clipPath>
      <clipPath clipPathUnits="userSpaceOnUse" id="2099644002269-clipPath1">
        <path d="m -360.5782,-500.9431 h 800 V 99.057 h -800 z" id="path87" inkscape:connector-curvature="0"/>
      </clipPath>
      <clipPath clipPathUnits="userSpaceOnUse" id="2099644002716-clipPath2">
        <path d="m -463.1726,-81.2974 h 800 v 600 h -800 z" id="path90" inkscape:connector-curvature="0"/>
      </clipPath>
      <clipPath clipPathUnits="userSpaceOnUse" id="2099644002502-clipPath1">
        <path d="m -628.7147,-139.7138 h 800.0001 v 600 h -800.0001 z" id="path93" inkscape:connector-curvature="0"/>
      </clipPath>
    </defs>
    <g id="g99" style="text-rendering:geometricPrecision">
      <path d="m 149.0867,120.4618 v 67.4505 c 0,0.8064 0.6534,1.4598 1.4598,1.4598 0.8064,0 1.4598,-0.6534 1.4598,-1.4598 v -67.4505 c 0,-0.8064 -0.6534,-1.4598 -1.4598,-1.4598 -0.8064,0 -1.4598,0.6534 -1.4598,1.4598 z" clip-path="url(#2099644002629-clipPath1)" id="path97" inkscape:connector-curvature="0" style="stroke:none"/>
    </g>
    <g id="g103" style="text-rendering:geometricPrecision">
      <path d="m 253.732,179.429 c 0,0.8064 0.6534,1.4598 1.4598,1.4598 0.8064,0 1.4598,-0.6534 1.4598,-1.4598 v -50.4839 c 0,-0.8064 -0.6534,-1.4598 -1.4598,-1.4598 -0.8064,0 -1.4598,0.6534 -1.4598,1.4598 z m 12.1649,8.4833 c 0,0.8064 0.6534,1.4598 1.4598,1.4598 0.8064,0 1.4598,-0.6534 1.4598,-1.4598 v -67.4505 c 0,-0.8064 -0.6534,-1.4598 -1.4598,-1.4598 -0.8064,0 -1.4598,0.6534 -1.4598,1.4598 z" clip-path="url(#2099644002629-clipPath1)" id="path101" inkscape:connector-curvature="0" style="stroke:none"/>
    </g>
    <g id="g109" style="fill:#333399;stroke:#333399;text-rendering:geometricPrecision">
      <path d="m 164.7055,180.355 c -0.6983,-0.4032 -1.5909,-0.1641 -1.9941,0.5343 -0.4032,0.6983 -0.1641,1.5908 0.5342,1.9941 l 38.6016,22.2888 c 0.6983,0.4032 1.5909,0.1641 1.9941,-0.5342 0.4032,-0.6983 0.1641,-1.5909 -0.5342,-1.9941 z m -13.4291,6.2931 c -0.6983,-0.4032 -1.5909,-0.164 -1.9941,0.5343 -0.4032,0.6983 -0.1641,1.5909 0.5342,1.9941 l 45.9478,26.5306 c 0.6983,0.4032 1.5909,0.1641 1.9941,-0.5343 0.4032,-0.6983 0.1641,-1.5909 -0.5342,-1.9941 z" clip-path="url(#2099644002629-clipPath1)" id="path105" inkscape:connector-curvature="0" style="stroke:none"/>
      <path d="m 164.7055,180.355 c -0.6983,-0.4032 -1.5909,-0.1641 -1.9941,0.5343 -0.4032,0.6983 -0.1641,1.5908 0.5342,1.9941 l 38.6016,22.2888 c 0.6983,0.4032 1.5909,0.1641 1.9941,-0.5342 0.4032,-0.6983 0.1641,-1.5909 -0.5342,-1.9941 z m -13.4291,6.2931 c -0.6983,-0.4032 -1.5909,-0.164 -1.9941,0.5343 -0.4032,0.6983 -0.1641,1.5909 0.5342,1.9941 l 45.9478,26.5306 c 0.6983,0.4032 1.5909,0.1641 1.9941,-0.5343 0.4032,-0.6983 0.1641,-1.5909 -0.5342,-1.9941 z" clip-path="url(#2099644002986-clipPath1)" id="path107" inkscape:connector-curvature="0" style="fill:#000000;stroke:none"/>
    </g>
    <g id="g115" style="text-rendering:geometricPrecision">
      <path d="m 222.0652,215.7459 46.0214,-26.5694 c 0.6983,-0.4031 0.9375,-1.2957 0.5343,-1.994 -0.4032,-0.6984 -1.2957,-0.9376 -1.9941,-0.5344 l -46.0214,26.5694 c -0.6983,0.4032 -0.9375,1.2957 -0.5343,1.9941 0.4032,0.6983 1.2957,0.9375 1.9941,0.5343 z" clip-path="url(#2099644002629-clipPath1)" id="path111" inkscape:connector-curvature="0" style="stroke:none"/>
      <path d="m 222.0652,215.7459 46.0214,-26.5694 c 0.6983,-0.4031 0.9375,-1.2957 0.5343,-1.994 -0.4032,-0.6984 -1.2957,-0.9376 -1.9941,-0.5344 l -46.0214,26.5694 c -0.6983,0.4032 -0.9375,1.2957 -0.5343,1.9941 0.4032,0.6983 1.2957,0.9375 1.9941,0.5343 z" clip-path="url(#2099644002135-clipPath1)" id="path113" inkscape:connector-curvature="0" style="fill:#333399;stroke:none"/>
    </g>
    <g id="g121" style="text-rendering:geometricPrecision">
      <path d="m 203.3729,105.6923 c 0.6983,-0.4033 0.9374,-1.2958 0.5342,-1.9942 -0.4032,-0.6983 -1.2958,-0.9374 -1.9941,-0.5342 l -38.6674,22.3268 c -0.6983,0.4032 -0.9374,1.2958 -0.5342,1.9941 0.4032,0.6984 1.2958,0.9375 1.9941,0.5343 z m -6.083,-10.5349 c 0.6984,-0.4032 0.9375,-1.2958 0.5343,-1.9941 -0.4032,-0.6984 -1.2958,-0.9375 -1.9941,-0.5343 l -46.0136,26.5686 c -0.6983,0.4032 -0.9374,1.2958 -0.5342,1.9941 0.4032,0.6983 1.2958,0.9375 1.9941,0.5342 z" clip-path="url(#2099644002629-clipPath1)" id="path117" inkscape:connector-curvature="0" style="stroke:none"/>
      <path d="m 203.3729,105.6923 c 0.6983,-0.4033 0.9374,-1.2958 0.5342,-1.9942 -0.4032,-0.6983 -1.2958,-0.9374 -1.9941,-0.5342 l -38.6674,22.3268 c -0.6983,0.4032 -0.9374,1.2958 -0.5342,1.9941 0.4032,0.6984 1.2958,0.9375 1.9941,0.5343 z m -6.083,-10.5349 c 0.6984,-0.4032 0.9375,-1.2958 0.5343,-1.9941 -0.4032,-0.6984 -1.2958,-0.9375 -1.9941,-0.5343 l -46.0136,26.5686 c -0.6983,0.4032 -0.9374,1.2958 -0.5342,1.9941 0.4032,0.6983 1.2958,0.9375 1.9941,0.5342 z" clip-path="url(#2099644002753-clipPath1)" id="path119" inkscape:connector-curvature="0" style="fill:#333399;stroke:none"/>
    </g>
    <g id="g127" style="fill:#333399;stroke:#333399;text-rendering:geometricPrecision">
      <path d="M 268.0866,119.1975 222.0652,92.6282 c -0.6984,-0.4032 -1.5909,-0.164 -1.9941,0.5343 -0.4032,0.6984 -0.164,1.5909 0.5343,1.9941 l 46.0214,26.5694 c 0.6984,0.4032 1.5909,0.164 1.9941,-0.5344 0.4032,-0.6983 0.164,-1.5909 -0.5343,-1.9941 z" clip-path="url(#2099644002629-clipPath1)" id="path123" inkscape:connector-curvature="0" style="stroke:none"/>
      <path d="M 268.0866,119.1975 222.0652,92.6282 c -0.6984,-0.4032 -1.5909,-0.164 -1.9941,0.5343 -0.4032,0.6984 -0.164,1.5909 0.5343,1.9941 l 46.0214,26.5694 c 0.6984,0.4032 1.5909,0.164 1.9941,-0.5344 0.4032,-0.6983 0.164,-1.5909 -0.5343,-1.9941 z" clip-path="url(#209964400210-clipPath1)" id="path125" inkscape:connector-curvature="0" style="fill:#000000;stroke:none"/>
    </g>
    <g id="g131" style="text-rendering:geometricPrecision">
      <path d="m 266.9055,189.3006 64.136,20.8455 c 0.7669,0.2493 1.5903,-0.1702 1.8395,-0.9371 0.2493,-0.7668 -0.1701,-1.5902 -0.937,-1.8395 L 267.8079,186.524 c -0.7669,-0.2492 -1.5902,0.1702 -1.8395,0.9371 -0.2493,0.7669 0.1702,1.5903 0.9371,1.8395 z" clip-path="url(#2099644002629-clipPath1)" id="path129" inkscape:connector-curvature="0" style="stroke:none"/>
    </g>
    <g id="g135" style="text-rendering:geometricPrecision">
      <path d="m 267.8074,121.8502 64.1469,-20.8244 c 0.767,-0.249 1.1868,-1.0722 0.9378,-1.8392 -0.249,-0.7669 -1.0722,-1.1867 -1.8392,-0.9377 l -64.1469,20.8244 c -0.767,0.249 -1.1867,1.0722 -0.9377,1.8392 0.249,0.767 1.0722,1.1867 1.8391,0.9377 z" clip-path="url(#2099644002629-clipPath1)" id="path133" inkscape:connector-curvature="0" style="stroke:none"/>
    </g>
    <g id="g141" style="fill:#333399;stroke:#333399;text-rendering:geometricPrecision">
      <path d="m 332.6736,209.616 30.0854,-41.4 c 0.4741,-0.6523 0.3296,-1.565 -0.3227,-2.039 -0.6523,-0.4741 -1.565,-0.3296 -2.0391,0.3227 l -30.0853,41.4 c -0.4741,0.6523 -0.3296,1.565 0.3227,2.039 0.6523,0.4741 1.565,0.3296 2.039,-0.3227 z" clip-path="url(#2099644002629-clipPath1)" id="path137" inkscape:connector-curvature="0" style="stroke:none"/>
      <path d="m 332.6736,209.616 30.0854,-41.4 c 0.4741,-0.6523 0.3296,-1.565 -0.3227,-2.039 -0.6523,-0.4741 -1.565,-0.3296 -2.0391,0.3227 l -30.0853,41.4 c -0.4741,0.6523 -0.3296,1.565 0.3227,2.039 0.6523,0.4741 1.565,0.3296 2.039,-0.3227 z" clip-path="url(#2099644002605-clipPath1)" id="path139" inkscape:connector-curvature="0" style="fill:#000000;stroke:none"/>
    </g>
    <g id="g147" style="text-rendering:geometricPrecision">
      <path d="M 362.7615,140.1825 332.6847,98.7794 c -0.474,-0.6524 -1.3866,-0.797 -2.039,-0.3231 -0.6524,0.474 -0.7971,1.3866 -0.3231,2.039 l 30.0768,41.4031 c 0.474,0.6524 1.3866,0.797 2.039,0.3231 0.6525,-0.474 0.797,-1.3866 0.3231,-2.039 z" clip-path="url(#2099644002629-clipPath1)" id="path143" inkscape:connector-curvature="0" style="stroke:none"/>
      <path d="M 362.7615,140.1825 332.6847,98.7794 c -0.474,-0.6524 -1.3866,-0.797 -2.039,-0.3231 -0.6524,0.474 -0.7971,1.3866 -0.3231,2.039 l 30.0768,41.4031 c 0.474,0.6524 1.3866,0.797 2.039,0.3231 0.6525,-0.474 0.797,-1.3866 0.3231,-2.039 z" clip-path="url(#2099644002525-clipPath1)" id="path145" inkscape:connector-curvature="0" style="fill:#333399;stroke:none"/>
    </g>
    <g id="g153" style="fill:#ff0000;stroke:#ff0000;text-rendering:geometricPrecision">
      <path d="m 322.9649,101.5073 c -0.2493,0.7669 0.17,1.5903 0.9369,1.8396 0.7669,0.2493 1.5903,-0.1701 1.8396,-0.9369 l 16.8,-51.6768 c 0.2494,-0.7669 -0.17,-1.5903 -0.9369,-1.8396 -0.7669,-0.2493 -1.5902,0.1701 -1.8396,0.9369 z m 11.5689,3.7611 c -0.2493,0.7668 0.1701,1.5903 0.9369,1.8396 0.7669,0.2493 1.5903,-0.1701 1.8396,-0.937 l 16.8001,-51.6768 c 0.2493,-0.7669 -0.1701,-1.5903 -0.937,-1.8396 -0.7668,-0.2493 -1.5902,0.1701 -1.8395,0.937 z" clip-path="url(#2099644002629-clipPath1)" id="path149" inkscape:connector-curvature="0" style="stroke:none"/>
      <path d="m 322.9649,101.5073 c -0.2493,0.7669 0.17,1.5903 0.9369,1.8396 0.7669,0.2493 1.5903,-0.1701 1.8396,-0.9369 l 16.8,-51.6768 c 0.2494,-0.7669 -0.17,-1.5903 -0.9369,-1.8396 -0.7669,-0.2493 -1.5902,0.1701 -1.8396,0.9369 z m 11.5689,3.7611 c -0.2493,0.7668 0.1701,1.5903 0.9369,1.8396 0.7669,0.2493 1.5903,-0.1701 1.8396,-0.937 l 16.8001,-51.6768 c 0.2493,-0.7669 -0.1701,-1.5903 -0.937,-1.8396 -0.7668,-0.2493 -1.5902,0.1701 -1.8395,0.937 z" clip-path="url(#2099644002301-clipPath1)" id="path151" inkscape:connector-curvature="0" style="fill:#000000;stroke:none"/>
    </g>
    <g id="g159" style="fill:#ff0000;stroke:#ff0000;text-rendering:geometricPrecision">
      <path d="m 309.0608,331.1242 c 0.7887,0.1677 1.5638,-0.3355 1.7315,-1.1242 0.1678,-0.7888 -0.3355,-1.5638 -1.1242,-1.7315 l -54.8248,-11.6589 c -0.7887,-0.1678 -1.5638,0.3354 -1.7315,1.1242 -0.1677,0.7887 0.3355,1.5637 1.1242,1.7314 z m 2.5304,-11.8989 c 0.7887,0.1678 1.5638,-0.3354 1.7315,-1.1242 0.1677,-0.7887 -0.3355,-1.5637 -1.1242,-1.7315 l -54.8248,-11.6589 c -0.7888,-0.1677 -1.5638,0.3355 -1.7315,1.1242 -0.1678,0.7888 0.3354,1.5638 1.1242,1.7315 z" clip-path="url(#2099644002629-clipPath1)" id="path155" inkscape:connector-curvature="0" style="stroke:none"/>
      <path d="m 309.0608,331.1242 c 0.7887,0.1677 1.5638,-0.3355 1.7315,-1.1242 0.1678,-0.7888 -0.3355,-1.5638 -1.1242,-1.7315 l -54.8248,-11.6589 c -0.7887,-0.1678 -1.5638,0.3354 -1.7315,1.1242 -0.1677,0.7887 0.3355,1.5637 1.1242,1.7314 z m 2.5304,-11.8989 c 0.7887,0.1678 1.5638,-0.3354 1.7315,-1.1242 0.1677,-0.7887 -0.3355,-1.5637 -1.1242,-1.7315 l -54.8248,-11.6589 c -0.7888,-0.1677 -1.5638,0.3355 -1.7315,1.1242 -0.1678,0.7888 0.3354,1.5638 1.1242,1.7315 z" clip-path="url(#2099644002263-clipPath1)" id="path157" inkscape:connector-curvature="0" style="fill:#000000;stroke:none"/>
    </g>
    <g id="g165" style="fill:#ff0000;stroke:#ff0000;text-rendering:geometricPrecision">
      <path d="m 330.1044,209.2088 15.5469,47.8644 c 0.2492,0.7669 1.0724,1.1865 1.8394,0.9374 0.7669,-0.2491 1.1865,-1.0724 0.9374,-1.8394 l -15.547,-47.8643 c -0.2491,-0.767 -1.0724,-1.1866 -1.8393,-0.9375 -0.7669,0.2492 -1.1865,1.0724 -0.9374,1.8394 z" clip-path="url(#2099644002629-clipPath1)" id="path161" inkscape:connector-curvature="0" style="stroke:none"/>
      <path d="m 330.1044,209.2088 15.5469,47.8644 c 0.2492,0.7669 1.0724,1.1865 1.8394,0.9374 0.7669,-0.2491 1.1865,-1.0724 0.9374,-1.8394 l -15.547,-47.8643 c -0.2491,-0.767 -1.0724,-1.1866 -1.8393,-0.9375 -0.7669,0.2492 -1.1865,1.0724 -0.9374,1.8394 z" clip-path="url(#2099644002556-clipPath1)" id="path163" inkscape:connector-curvature="0" style="fill:#000000;stroke:none"/>
    </g>
    <g id="g171" style="text-rendering:geometricPrecision">
      <path d="M 339.6373,284.811 306.11,322.0396 c -0.5396,0.5992 -0.4913,1.522 0.1079,2.0616 0.5992,0.5396 1.522,0.4913 2.0616,-0.1079 l 33.5273,-37.2285 c 0.5396,-0.5992 0.4913,-1.522 -0.1079,-2.0616 -0.5992,-0.5397 -1.522,-0.4914 -2.0616,0.1078 z" clip-path="url(#2099644002629-clipPath1)" id="path167" inkscape:connector-curvature="0" style="stroke:none"/>
      <path d="M 339.6373,284.811 306.11,322.0396 c -0.5396,0.5992 -0.4913,1.522 0.1079,2.0616 0.5992,0.5396 1.522,0.4913 2.0616,-0.1079 l 33.5273,-37.2285 c 0.5396,-0.5992 0.4913,-1.522 -0.1079,-2.0616 -0.5992,-0.5397 -1.522,-0.4914 -2.0616,0.1078 z" clip-path="url(#2099644002716-clipPath1)" id="path169" inkscape:connector-curvature="0" style="fill:#ff0000;stroke:none"/>
    </g>
    <g id="g175" style="text-rendering:geometricPrecision">
      <path d="m 281.511,437.7313 20.8434,64.1493 c 0.2492,0.7669 1.0725,1.1864 1.8394,0.9372 0.7669,-0.2492 1.1864,-1.0725 0.9372,-1.8394 l -20.8433,-64.1493 c -0.2492,-0.7669 -1.0726,-1.1864 -1.8395,-0.9373 -0.7669,0.2493 -1.1864,1.0726 -0.9372,1.8395 z" clip-path="url(#2099644002629-clipPath1)" id="path173" inkscape:connector-curvature="0" style="stroke:none"/>
    </g>
    <g id="g179" style="text-rendering:geometricPrecision">
      <path d="m 416.2319,464.8795 -20.8433,-64.1493 c -0.2492,-0.7669 -1.0726,-1.1864 -1.8395,-0.9372 -0.7669,0.2492 -1.1864,1.0725 -0.9372,1.8394 l 20.8434,64.1493 c 0.2492,0.7669 1.0725,1.1864 1.8394,0.9373 0.7669,-0.2492 1.1864,-1.0726 0.9372,-1.8395 z" clip-path="url(#2099644002629-clipPath1)" id="path177" inkscape:connector-curvature="0" style="stroke:none"/>
    </g>
    <g id="g185" style="fill:#333399;stroke:#333399;text-rendering:geometricPrecision">
      <path d="m 303.4394,502.8574 53.3205,11.3268 c 0.7888,0.1675 1.5637,-0.3358 1.7313,-1.1246 0.1675,-0.7887 -0.3358,-1.5637 -1.1246,-1.7312 l -53.3205,-11.3268 c -0.7888,-0.1676 -1.5637,0.3358 -1.7313,1.1246 -0.1676,0.7887 0.3358,1.5636 1.1246,1.7312 z" clip-path="url(#2099644002629-clipPath1)" id="path181" inkscape:connector-curvature="0" style="stroke:none"/>
      <path d="m 303.4394,502.8574 53.3205,11.3268 c 0.7888,0.1675 1.5637,-0.3358 1.7313,-1.1246 0.1675,-0.7887 -0.3358,-1.5637 -1.1246,-1.7312 l -53.3205,-11.3268 c -0.7888,-0.1676 -1.5637,0.3358 -1.7313,1.1246 -0.1676,0.7887 0.3358,1.5636 1.1246,1.7312 z" clip-path="url(#2099644002834-clipPath1)" id="path183" inkscape:connector-curvature="0" style="fill:#000000;stroke:none"/>
    </g>
    <g id="g191" style="text-rendering:geometricPrecision">
      <path d="m 381.2503,504.8119 34.678,-38.5044 c 0.5397,-0.5992 0.4914,-1.5219 -0.1078,-2.0616 -0.5992,-0.5396 -1.5219,-0.4914 -2.0616,0.1078 l -34.678,38.5044 c -0.5397,0.5991 -0.4914,1.5219 0.1078,2.0616 0.5991,0.5396 1.5219,0.4914 2.0616,-0.1078 z" clip-path="url(#2099644002629-clipPath1)" id="path187" inkscape:connector-curvature="0" style="stroke:none"/>
      <path d="m 381.2503,504.8119 34.678,-38.5044 c 0.5397,-0.5992 0.4914,-1.5219 -0.1078,-2.0616 -0.5992,-0.5396 -1.5219,-0.4914 -2.0616,0.1078 l -34.678,38.5044 c -0.5397,0.5991 -0.4914,1.5219 0.1078,2.0616 0.5991,0.5396 1.5219,0.4914 2.0616,-0.1078 z" clip-path="url(#2099644002361-clipPath1)" id="path189" inkscape:connector-curvature="0" style="fill:#333399;stroke:none"/>
    </g>
    <g id="g197" style="fill:#333399;stroke:#333399;text-rendering:geometricPrecision">
      <path d="m 305.8064,323.4674 15.748,48.4835 c 0.2491,0.7669 1.0724,1.1865 1.8393,0.9374 0.767,-0.2491 1.1866,-1.0724 0.9374,-1.8394 l -15.748,-48.4834 c -0.2491,-0.7669 -1.0724,-1.1865 -1.8393,-0.9374 -0.7669,0.2491 -1.1865,1.0724 -0.9374,1.8393 z" clip-path="url(#2099644002629-clipPath1)" id="path193" inkscape:connector-curvature="0" style="stroke:none"/>
      <path d="m 305.8064,323.4674 15.748,48.4835 c 0.2491,0.7669 1.0724,1.1865 1.8393,0.9374 0.767,-0.2491 1.1866,-1.0724 0.9374,-1.8394 l -15.748,-48.4834 c -0.2491,-0.7669 -1.0724,-1.1865 -1.8393,-0.9374 -0.7669,0.2491 -1.1865,1.0724 -0.9374,1.8393 z" clip-path="url(#2099644002827-clipPath1)" id="path195" inkscape:connector-curvature="0" style="fill:#000000;stroke:none"/>
    </g>
    <g id="g203" style="text-rendering:geometricPrecision">
      <path d="m 316.4908,397.7928 -34.6763,38.5106 c -0.5395,0.5992 -0.4912,1.522 0.108,2.0616 0.5993,0.5396 1.5221,0.4912 2.0617,-0.108 l 34.6763,-38.5106 c 0.5395,-0.5992 0.4912,-1.522 -0.1081,-2.0616 -0.5992,-0.5396 -1.522,-0.4912 -2.0616,0.108 z" clip-path="url(#2099644002629-clipPath1)" id="path199" inkscape:connector-curvature="0" style="stroke:none"/>
      <path d="m 316.4908,397.7928 -34.6763,38.5106 c -0.5395,0.5992 -0.4912,1.522 0.108,2.0616 0.5993,0.5396 1.5221,0.4912 2.0617,-0.108 l 34.6763,-38.5106 c 0.5395,-0.5992 0.4912,-1.522 -0.1081,-2.0616 -0.5992,-0.5396 -1.522,-0.4912 -2.0616,0.108 z" clip-path="url(#2099644002740-clipPath1)" id="path201" inkscape:connector-curvature="0" style="fill:#333399;stroke:none"/>
    </g>
    <g id="g209" style="text-rendering:geometricPrecision">
      <path d="m 340.3737,391.276 53.323,11.3332 c 0.7888,0.1677 1.5638,-0.3356 1.7314,-1.1244 0.1677,-0.7888 -0.3356,-1.5637 -1.1244,-1.7314 l -53.323,-11.3331 c -0.7888,-0.1677 -1.5637,0.3356 -1.7314,1.1243 -0.1676,0.7888 0.3357,1.5638 1.1244,1.7314 z" clip-path="url(#2099644002629-clipPath1)" id="path205" inkscape:connector-curvature="0" style="stroke:none"/>
      <path d="m 340.3737,391.276 53.323,11.3332 c 0.7888,0.1677 1.5638,-0.3356 1.7314,-1.1244 0.1677,-0.7888 -0.3356,-1.5637 -1.1244,-1.7314 l -53.323,-11.3331 c -0.7888,-0.1677 -1.5637,0.3356 -1.7314,1.1243 -0.1676,0.7888 0.3357,1.5638 1.1244,1.7314 z" clip-path="url(#2099644002639-clipPath1)" id="path207" inkscape:connector-curvature="0" style="fill:#333399;stroke:none"/>
    </g>
    <g id="g215" style="text-rendering:geometricPrecision">
      <path d="m 383.612,155.6607 54.9703,0.005 c 0.8064,1e-4 1.4598,-0.6533 1.4599,-1.4597 1e-4,-0.8063 -0.6533,-1.4598 -1.4596,-1.4599 l -54.9704,-0.005 c -0.8064,-10e-5 -1.4598,0.6533 -1.4599,1.4596 0,0.8064 0.6533,1.4599 1.4597,1.4599 z" clip-path="url(#2099644002629-clipPath1)" id="path211" inkscape:connector-curvature="0" style="stroke:none"/>
      <path d="m 383.612,155.6607 54.9703,0.005 c 0.8064,1e-4 1.4598,-0.6533 1.4599,-1.4597 1e-4,-0.8063 -0.6533,-1.4598 -1.4596,-1.4599 l -54.9704,-0.005 c -0.8064,-10e-5 -1.4598,0.6533 -1.4599,1.4596 0,0.8064 0.6533,1.4599 1.4597,1.4599 z" clip-path="url(#2099644002162-clipPath1)" id="path213" inkscape:connector-curvature="0" style="fill:#333399;stroke:none"/>
    </g>
    <g id="g219" style="text-rendering:geometricPrecision">
      <path d="m 472.3018,214.0674 67.4506,0.002 c 0.8064,0 1.4598,-0.6534 1.4598,-1.4597 0,-0.8064 -0.6534,-1.4598 -1.4598,-1.4599 l -67.4505,-0.002 c -0.8064,0 -1.4598,0.6534 -1.4598,1.4597 0,0.8064 0.6534,1.4598 1.4597,1.4598 z" clip-path="url(#2099644002629-clipPath1)" id="path217" inkscape:connector-curvature="0" style="stroke:none"/>
    </g>
    <g id="g223" style="text-rendering:geometricPrecision">
      <path d="m 532.1956,198.4504 c -0.4033,0.6984 -0.1642,1.5909 0.5341,1.9942 0.6983,0.4032 1.5909,0.1641 1.9942,-0.5342 l 25.2387,-43.7074 c 0.4032,-0.6983 0.1642,-1.5909 -0.5341,-1.9941 -0.6983,-0.4033 -1.591,-0.1642 -1.9942,0.5341 z m 6.2927,13.4293 c -0.4033,0.6983 -0.1641,1.5909 0.5342,1.9942 0.6983,0.4032 1.5908,0.1641 1.9941,-0.5342 l 33.723,-58.4 c 0.4032,-0.6983 0.1641,-1.5909 -0.5342,-1.9941 -0.6983,-0.4033 -1.5909,-0.1642 -1.9942,0.5341 z" clip-path="url(#2099644002629-clipPath1)" id="path221" inkscape:connector-curvature="0" style="stroke:none"/>
    </g>
    <g id="g227" style="text-rendering:geometricPrecision">
      <path d="M 574.7396,153.4799 541.0202,95.0697 c -0.4031,-0.6984 -1.2957,-0.9376 -1.9941,-0.5344 -0.6983,0.4031 -0.9375,1.2957 -0.5344,1.994 l 33.7194,58.4102 c 0.4032,0.6984 1.2957,0.9376 1.9941,0.5345 0.6984,-0.4032 0.9376,-1.2958 0.5344,-1.9941 z" clip-path="url(#2099644002629-clipPath1)" id="path225" inkscape:connector-curvature="0" style="stroke:none"/>
    </g>
    <g id="g231" style="text-rendering:geometricPrecision">
      <path d="m 454.6235,154.7399 c -0.4032,-0.6983 -1.2958,-0.9375 -1.9941,-0.5343 -0.6983,0.4032 -0.9375,1.2958 -0.5343,1.9941 l 25.2361,43.709 c 0.4032,0.6983 1.2958,0.9374 1.9941,0.5343 0.6984,-0.4032 0.9375,-1.2958 0.5343,-1.9941 z m -14.7769,-1.2642 c -0.4031,-0.6983 -1.2957,-0.9375 -1.9941,-0.5343 -0.6983,0.4032 -0.9375,1.2958 -0.5343,1.9941 l 33.7195,58.4021 c 0.4032,0.6983 1.2957,0.9375 1.9941,0.5343 0.6983,-0.4032 0.9374,-1.2958 0.5343,-1.9941 z" clip-path="url(#2099644002629-clipPath1)" id="path229" inkscape:connector-curvature="0" style="stroke:none"/>
    </g>
    <g id="g237" style="fill:#333399;stroke:#333399;text-rendering:geometricPrecision">
      <path d="m 531.2722,109.4239 c 0.8064,1e-4 1.4598,-0.6533 1.4599,-1.4597 0,-0.8064 -0.6534,-1.4598 -1.4598,-1.4598 l -46.4953,-0.001 c -0.8063,-1e-4 -1.4597,0.6533 -1.4598,1.4597 0,0.8064 0.6534,1.4598 1.4597,1.4598 z m 8.4837,-12.1646 c 0.8064,0 1.4598,-0.6534 1.4599,-1.4598 0,-0.8063 -0.6534,-1.4598 -1.4598,-1.4598 l -54.9786,-0.0016 c -0.8064,-1e-4 -1.4598,0.6533 -1.4598,1.4597 0,0.8064 0.6533,1.4598 1.4597,1.4598 z" clip-path="url(#2099644002629-clipPath1)" id="path233" inkscape:connector-curvature="0" style="stroke:none"/>
      <path d="m 531.2722,109.4239 c 0.8064,1e-4 1.4598,-0.6533 1.4599,-1.4597 0,-0.8064 -0.6534,-1.4598 -1.4598,-1.4598 l -46.4953,-0.001 c -0.8063,-1e-4 -1.4597,0.6533 -1.4598,1.4597 0,0.8064 0.6534,1.4598 1.4597,1.4598 z m 8.4837,-12.1646 c 0.8064,0 1.4598,-0.6534 1.4599,-1.4598 0,-0.8063 -0.6534,-1.4598 -1.4598,-1.4598 l -54.9786,-0.0016 c -0.8064,-1e-4 -1.4598,0.6533 -1.4598,1.4597 0,0.8064 0.6533,1.4598 1.4597,1.4598 z" clip-path="url(#2099644002346-clipPath1)" id="path235" inkscape:connector-curvature="0" style="fill:#000000;stroke:none"/>
    </g>
    <g id="g243" style="text-rendering:geometricPrecision">
      <path d="m 462.9329,109.1111 -25.6147,44.3646 c -0.4032,0.6984 -0.164,1.5909 0.5343,1.9941 0.6984,0.4032 1.591,0.1641 1.9941,-0.5343 l 25.6147,-44.3646 c 0.4032,-0.6983 0.1641,-1.5909 -0.5343,-1.9941 -0.6983,-0.4032 -1.5909,-0.164 -1.9941,0.5343 z" clip-path="url(#2099644002629-clipPath1)" id="path239" inkscape:connector-curvature="0" style="stroke:none"/>
      <path d="m 462.9329,109.1111 -25.6147,44.3646 c -0.4032,0.6984 -0.164,1.5909 0.5343,1.9941 0.6984,0.4032 1.591,0.1641 1.9941,-0.5343 l 25.6147,-44.3646 c 0.4032,-0.6983 0.1641,-1.5909 -0.5343,-1.9941 -0.6983,-0.4032 -1.5909,-0.164 -1.9941,0.5343 z" clip-path="url(#2099644002788-clipPath1)" id="path241" inkscape:connector-curvature="0" style="fill:#333399;stroke:none"/>
    </g>
    <g id="g249" style="fill:#009900;stroke:#009900;text-rendering:geometricPrecision">
      <path d="m 573.4753,155.6695 51.4001,0.003 c 0.8064,10e-5 1.4598,-0.6533 1.4598,-1.4597 10e-5,-0.8064 -0.6533,-1.4598 -1.4597,-1.4598 l -51.4,-0.003 c -0.8064,0 -1.4598,0.6533 -1.4599,1.4597 0,0.8064 0.6533,1.4598 1.4597,1.4599 z" clip-path="url(#2099644002629-clipPath1)" id="path245" inkscape:connector-curvature="0" style="stroke:none"/>
      <path d="m 573.4753,155.6695 51.4001,0.003 c 0.8064,10e-5 1.4598,-0.6533 1.4598,-1.4597 10e-5,-0.8064 -0.6533,-1.4598 -1.4597,-1.4598 l -51.4,-0.003 c -0.8064,0 -1.4598,0.6533 -1.4599,1.4597 0,0.8064 0.6533,1.4598 1.4597,1.4599 z" clip-path="url(#2099644002679-clipPath1)" id="path247" inkscape:connector-curvature="0" style="fill:#000000;stroke:none"/>
    </g>
    <g id="g255" style="text-rendering:geometricPrecision">
      <path d="m 373.4108,531.5535 13.9484,42.9289 c 0.2492,0.7669 1.0725,1.1864 1.8394,0.9372 0.7669,-0.2492 1.1864,-1.0726 0.9372,-1.8395 l -13.9484,-42.9287 c -0.2491,-0.7669 -1.0725,-1.1865 -1.8394,-0.9373 -0.7669,0.2492 -1.1864,1.0725 -0.9372,1.8394 z" clip-path="url(#2099644002629-clipPath1)" id="path251" inkscape:connector-curvature="0" style="stroke:none"/>
      <path d="m 373.4108,531.5535 13.9484,42.9289 c 0.2492,0.7669 1.0725,1.1864 1.8394,0.9372 0.7669,-0.2492 1.1864,-1.0726 0.9372,-1.8395 l -13.9484,-42.9287 c -0.2491,-0.7669 -1.0725,-1.1865 -1.8394,-0.9373 -0.7669,0.2492 -1.1864,1.0725 -0.9372,1.8394 z" clip-path="url(#2099644002837-clipPath1)" id="path253" inkscape:connector-curvature="0" style="fill:#333399;stroke:none"/>
    </g>
    <g font-size="24px" transform="translate(199.8147,72.2406)" id="g259" style="font-size:24px;font-family:sans-serif;fill:#333399;stroke:#333399;text-rendering:geometricPrecision">
      <text x="0" xml:space="preserve" y="23" clip-path="url(#2099644002371-clipPath1)" id="text257" style="stroke:none">N</text>
    </g>
    <g font-size="24px" transform="translate(199.8147,207.1335)" id="g263" style="font-size:24px;font-family:sans-serif;fill:#333399;stroke:#333399;text-rendering:geometricPrecision">
      <text x="0" xml:space="preserve" y="23" clip-path="url(#2099644002263-clipPath2)" id="text261" style="stroke:none">N</text>
    </g>
    <g font-size="24px" transform="translate(362.0072,139.6999)" id="g267" style="font-size:24px;font-family:sans-serif;fill:#333399;stroke:#333399;text-rendering:geometricPrecision">
      <text x="0" xml:space="preserve" y="23" clip-path="url(#209964400263-clipPath1)" id="text265" style="stroke:none">N</text>
    </g>
    <g font-size="24px" transform="translate(342.718,258.4014)" id="g271" style="font-size:24px;font-family:sans-serif;fill:#ff0000;stroke:#ff0000;text-rendering:geometricPrecision">
      <text x="0" xml:space="preserve" y="23" clip-path="url(#2099644002471-clipPath1)" id="text269" style="stroke:none">O</text>
    </g>
    <g font-size="24px" transform="translate(342.7454,20.9992)" id="g275" style="font-size:24px;font-family:sans-serif;fill:#ff0000;stroke:#ff0000;text-rendering:geometricPrecision">
      <text x="0" xml:space="preserve" y="23" clip-path="url(#209964400289-clipPath1)" id="text273" style="stroke:none">O</text>
    </g>
    <g font-size="24px" transform="translate(231.6181,294.488)" id="g279" style="font-size:24px;font-family:sans-serif;fill:#ff0000;stroke:#ff0000;text-rendering:geometricPrecision">
      <text x="0" xml:space="preserve" y="23" clip-path="url(#2099644002659-clipPath1)" id="text277" style="stroke:none">O</text>
    </g>
    <g font-size="24px" transform="translate(318.8966,372.66)" id="g283" style="font-size:24px;font-family:sans-serif;fill:#333399;stroke:#333399;text-rendering:geometricPrecision">
      <text x="0" xml:space="preserve" y="23" clip-path="url(#2099644002668-clipPath1)" id="text281" style="stroke:none">N</text>
    </g>
    <g font-size="24px" transform="translate(360.5782,500.943)" id="g287" style="font-size:24px;font-family:sans-serif;fill:#333399;stroke:#333399;text-rendering:geometricPrecision">
      <text x="0" xml:space="preserve" y="23" clip-path="url(#2099644002269-clipPath1)" id="text285" style="stroke:none">N</text>
    </g>
    <g font-size="24px" transform="translate(463.1726,81.2974)" id="g291" style="font-size:24px;font-family:sans-serif;fill:#333399;stroke:#333399;text-rendering:geometricPrecision">
      <text x="0" xml:space="preserve" y="23" clip-path="url(#2099644002716-clipPath2)" id="text289" style="stroke:none">N</text>
    </g>
    <g font-size="24px" transform="translate(628.7147,139.7138)" id="g295" style="font-size:24px;font-family:sans-serif;fill:#009900;stroke:#009900;text-rendering:geometricPrecision">
      <text x="0" xml:space="preserve" y="23" clip-path="url(#2099644002502-clipPath1)" id="text293" style="stroke:none">Cl</text>
    </g>
  </g>
</svg>